<svg width="35" height="35" viewBox="0 0 35 35" fill="none" xmlns="http://www.w3.org/2000/svg">
<rect width="35" height="35" rx="17.5" fill="#E54E13" fill-opacity="0.17"/>
<path d="M17.8921 9.37992H26.3294C26.6997 9.34771 27.07 9.49263 27.3276 9.76636C27.6175 10.0803 27.6899 10.5312 27.5209 10.9257C27.3518 11.3443 26.9412 11.618 26.4904 11.618C26.2569 11.6341 26.0234 11.6341 25.7819 11.618C25.5404 11.6019 25.4599 11.6824 25.4599 11.932C25.4679 13.9689 25.4599 16.0138 25.4599 18.0506C25.4599 20.0875 25.4599 22.3176 25.4599 24.4671C25.484 26.2866 24.0268 27.776 22.2073 27.7921C22.1751 27.7921 22.151 27.7921 22.1188 27.7921H13.6332C11.8138 27.8162 10.3163 26.3591 10.2841 24.5396C10.2841 24.5074 10.2841 24.4752 10.2841 24.4349C10.2841 20.2968 10.2841 16.1587 10.2841 12.0125C10.2841 11.6261 10.2841 11.6261 9.89767 11.618C9.61589 11.6422 9.32606 11.6261 9.04429 11.5778C8.51293 11.4892 8.13454 11.0223 8.15064 10.4909C8.15064 9.95957 8.52904 9.50873 9.04429 9.42017C9.18115 9.39602 9.32606 9.38797 9.47098 9.38797C12.2727 9.38797 15.0743 9.38797 17.876 9.38797L17.8921 9.37992ZM12.5222 18.2116C12.5222 20.2887 12.5222 22.3739 12.5222 24.4591C12.4739 25.0146 12.8926 25.4976 13.44 25.5379C13.4964 25.5379 13.5527 25.5379 13.6091 25.5379C16.443 25.5379 19.2768 25.5379 22.0946 25.5379C22.6582 25.5942 23.1654 25.1836 23.2217 24.6201C23.2217 24.5476 23.2217 24.4752 23.2217 24.4027V11.9562C23.2217 11.618 23.2217 11.618 22.8836 11.618C19.5506 11.618 16.2175 11.618 12.8845 11.618C12.5222 11.618 12.5142 11.618 12.5142 11.9803C12.5142 14.0655 12.5142 16.1426 12.5142 18.2197L12.5222 18.2116Z" fill="#E54E13"/>
<path d="M17.8841 6.13573C18.5684 6.13573 19.2608 6.11963 19.9451 6.13573C20.557 6.09548 21.0964 6.56243 21.1366 7.17429C21.1447 7.32725 21.1286 7.47217 21.0722 7.61708C20.9193 8.06793 20.4845 8.36581 20.0095 8.35775C18.5765 8.36581 17.1595 8.36581 15.7426 8.35775C15.1468 8.38191 14.6477 7.91496 14.6235 7.31115C14.6235 7.27895 14.6235 7.24674 14.6235 7.20649C14.6235 6.61073 15.1146 6.12768 15.7104 6.13573C15.7265 6.13573 15.7426 6.13573 15.7506 6.13573C16.4591 6.11158 17.1676 6.13573 17.868 6.13573H17.8841Z" fill="#E54E13"/>
<path d="M21.1284 18.0346C21.1284 19.0893 21.1284 20.16 21.1284 21.2147C21.1606 21.8265 20.6937 22.3418 20.0818 22.374C20.0657 22.374 20.0496 22.374 20.0335 22.374C19.4217 22.374 18.9306 21.8749 18.9306 21.263C18.9306 21.2549 18.9306 21.2388 18.9306 21.2308C18.9306 19.0893 18.9306 16.9558 18.9306 14.8224C18.9145 14.2266 19.3895 13.7274 19.9852 13.7113C20.0094 13.7113 20.0335 13.7113 20.0577 13.7113C20.6373 13.6952 21.1204 14.1622 21.1284 14.7418C21.1284 14.774 21.1284 14.7982 21.1284 14.8304C21.1284 15.9012 21.1284 16.9719 21.1284 18.0346Z" fill="#E54E13"/>
<path d="M14.6234 18.0107V14.8307C14.5912 14.243 15.0501 13.7358 15.6378 13.7035C15.6539 13.7035 15.678 13.7035 15.6941 13.7035C16.2899 13.6794 16.7971 14.1383 16.8213 14.7421C16.8213 14.7743 16.8213 14.8065 16.8213 14.8387C16.8213 16.9722 16.8213 19.0895 16.8213 21.223C16.8454 21.8027 16.4107 22.3099 15.831 22.3662C15.2997 22.4226 14.8005 22.0844 14.6636 21.5692C14.6314 21.4484 14.6153 21.3196 14.6234 21.1988V18.0188V18.0107Z" fill="#E54E13"/>
</svg>
