<svg width="550" height="404" viewBox="0 0 550 404" fill="none" xmlns="http://www.w3.org/2000/svg">
<path fill-rule="evenodd" clip-rule="evenodd" d="M207.441 399.715C298.83 425.416 343.297 326.791 421.6 334.295C464.464 338.402 549.901 359.22 549.71 207.574C549.232 109.671 458.994 85.1555 365.939 135.363C338.557 146.072 316.938 142.754 293.465 132.114C269.993 121.474 239.805 73.9739 182.91 64.2021C11.6922 34.7959 -134.806 303.471 207.441 399.715Z" fill="#FDA310"/>
<path fill-rule="evenodd" clip-rule="evenodd" d="M424.616 153.409C426.331 152.575 429.407 154.192 427.622 156.793C423.671 162.555 438.953 174.063 434.047 163.922C433.523 162.837 430.833 155.339 434.639 159.211C438.445 163.082 443.751 180.189 440.319 186.083C437.307 191.255 429.336 193.716 418.457 194.007L417.966 194.018L417.735 194.032C411.321 194.33 406.458 190.361 403.318 182.63L403.168 182.254C399.99 174.162 400.861 167.676 406 163.302C406.094 163.223 406.193 163.151 406.299 163.089L406.46 163.001L424.616 153.409Z" fill="white"/>
<path fill-rule="evenodd" clip-rule="evenodd" d="M78.111 1.97519C77.3625 0.914347 76.1507 0.302791 74.8552 0.460696C73.53 0.622091 72.4212 1.54422 72.0172 2.81619L71.9099 3.15643C71.8279 3.40681 71.7311 3.69471 71.6168 4.01837C71.2923 4.94137 70.8971 5.96645 70.4312 7.06829C69.1069 10.202 67.4764 13.3296 65.5309 16.2382C61.332 22.516 56.2721 26.8859 50.3414 28.5687C49.415 28.8313 48.8767 29.7962 49.1393 30.7236C49.2728 31.1938 57.9349 35.5227 66.7767 34.4313C75.3533 33.3731 84.1201 26.9068 84.1908 26.4671L84.299 25.5502L84.3295 25.2431C84.9437 18.5814 83.7773 11.0561 79.2914 3.76624C78.9188 3.16079 78.5254 2.56407 78.111 1.97519Z" fill="#E7EAEE"/>
<path fill-rule="evenodd" clip-rule="evenodd" d="M95.9588 3.91357L95.9134 4.26603C95.2914 8.77636 93.5509 15.0568 90.4016 19.7949C86.5255 25.6278 81.0546 30.0884 75.5567 32.9638C67.6248 37.1104 58.9923 37.8694 50.4916 32.4822L50.1165 32.2406C45.6498 29.3189 42.2596 27.9126 37.6088 29.0729C32.9571 30.2341 30.6985 33.6216 28.6907 36.7649L28.5987 36.8975C28.2768 37.3276 27.806 37.6251 27.2754 37.7298L18.4568 39.1265L21.6682 43.116C22.6347 44.326 23.3218 45.1976 23.7293 45.7315L27.2591 50.3814C37.7789 64.1794 49.1001 77.3527 71.1772 72.7926L71.9257 72.6321C77.7744 71.3314 82.6781 74.8236 88.8304 79.9699L90.1451 81.077C91.7721 82.4545 96.6925 86.7912 98.706 88.8798L99.3638 89.5699L99.971 90.2233C100.097 90.3611 100.218 90.4937 100.332 90.6202L100.96 91.3278L101.346 90.8732C105.51 85.8595 108.118 78.2234 109.469 71.9246C109.978 69.5447 110.271 67.2659 110.394 65.1634L110.408 64.8895C110.44 64.2745 110.454 63.7379 110.456 63.2904V62.9571L109.827 63.1421C102.546 65.2071 94.3536 65.4121 86.3597 64.4899C84.4291 64.2666 105.612 47.1099 101.264 24.8906C100.273 19.8271 99.6438 13.0564 97.913 8.46055C97.3668 7.01061 96.8015 5.68543 96.2406 4.5007L95.9588 3.91357Z" fill="white"/>
<path fill-rule="evenodd" clip-rule="evenodd" d="M425.537 156.153L407.413 164.963C403.069 168.66 402.331 174.157 405.197 181.456C406.203 184.017 408.719 190.117 408.719 187.722C408.719 186.973 425.537 175.98 428.764 177.056C431.747 178.05 426.388 169.085 424.885 164.963L425.537 155.928L426.036 155.027" fill="#E7EAEE"/>
<path fill-rule="evenodd" clip-rule="evenodd" d="M401.357 162.765C402.561 162.765 395.736 165.975 396.088 171.895C396.439 177.815 401.066 188.726 399.94 189.156C398.816 189.586 396.683 186.405 396.253 185.28C393.577 178.279 393.07 175.422 393.166 171.339C393.292 165.993 396.103 162.765 401.357 162.765Z" fill="#E7EAEE"/>
<path d="M431.729 179.272C434.331 179.272 436.441 174.507 436.441 168.629C436.441 162.751 434.331 157.986 431.729 157.986C429.128 157.986 427.018 162.751 427.018 168.629C427.018 174.507 429.128 179.272 431.729 179.272Z" fill="#E7EAEE"/>
<path fill-rule="evenodd" clip-rule="evenodd" d="M102.661 280.841C102.661 262.374 104.713 254.346 126.745 244.268C171.901 226.016 171.901 225.312 258.409 191.866C281.287 183.067 329.518 204.146 350.491 195.312C364.473 189.423 377.549 185.049 389.1 179.209C390.219 186.513 397.45 198.881 399.997 201.007C386.47 203.845 373.385 208.235 360.741 214.177C333.409 227.021 349.606 223.521 306.314 264.346C302.646 267.806 289.164 275.694 269.67 283.911C269.67 283.911 230.411 278.639 214.666 272.09C198.642 265.425 174.362 244.268 174.362 244.268C174.362 244.268 146.043 262.742 129.763 271.047C122.143 274.933 102.661 280.841 102.661 280.841Z" fill="white"/>
<path fill-rule="evenodd" clip-rule="evenodd" d="M102.66 271.244C102.66 266.91 102.202 263.884 102.66 260.539C104.153 249.63 110.004 244.049 126.865 236.337C172.02 218.085 171.9 215.715 258.408 182.27C281.285 173.47 329.517 194.549 350.49 185.715C364.472 179.826 377.548 175.453 389.099 169.612C389.133 169.822 387.93 179.804 387.93 179.804C387.93 179.804 359.412 194.863 340.548 198.056C320.506 201.449 292.976 185.715 265.487 193.453C223.625 205.238 127.157 242.277 115.744 251.559C106.778 258.852 102.66 271.244 102.66 271.244Z" fill="#E7EAEE"/>
<path fill-rule="evenodd" clip-rule="evenodd" d="M78.111 1.97519C77.3625 0.914347 76.1507 0.302791 74.8552 0.460696C73.53 0.622091 72.4212 1.54422 72.0172 2.81619L71.9099 3.15643C71.8279 3.40681 71.7311 3.69471 71.6168 4.01837C71.2923 4.94137 70.8971 5.96645 70.4312 7.06829C69.1069 10.202 67.4764 13.3296 65.5309 16.2382C61.332 22.516 56.2721 26.8859 50.3414 28.5687C49.415 28.8313 48.8767 29.7962 49.1393 30.7236C49.4027 31.6501 63.8123 25.0835 68.4308 18.1784C70.5106 15.07 72.2406 11.7514 73.646 8.42751C74.07 7.42424 74.439 6.47942 74.7548 5.60789L74.9084 5.17779C75.0323 4.82708 75.1387 4.51215 75.2286 4.23385C75.2512 4.03581 75.2731 3.96951 75.2923 4.03494C85.2883 10.8729 81.359 27.8438 82.3186 27.9266C83.2355 28.0052 84.0468 27.3605 84.1908 26.4671L84.299 25.5502L84.3295 25.2431C84.9437 18.5814 83.7773 11.0561 79.2914 3.76624C78.9188 3.16079 78.5254 2.56407 78.111 1.97519Z" fill="#E7EAEE"/>
<path fill-rule="evenodd" clip-rule="evenodd" d="M98.9242 1.9245L99.144 2.31795L99.4127 2.82221C99.575 3.13278 99.7565 3.49309 99.9545 3.9005C100.64 5.31118 101.332 6.90768 101.995 8.66819C103.862 13.6235 105.166 18.9713 105.612 24.5434C106.217 32.1045 105.125 39.2399 102.361 45.7315L102.124 46.2767C99.8786 51.348 96.6071 55.9945 92.3602 60.1628L91.9388 60.5702L92.2965 60.5877C98.4129 60.845 104.461 60.2972 109.778 58.6021C110.918 58.2383 112.161 58.4259 113.144 59.109C114.124 59.7912 114.733 60.8887 114.794 62.0812L114.808 62.4511L114.817 62.9406V63.129C114.817 63.8112 114.797 64.5772 114.748 65.4156C114.614 67.7318 114.293 70.2304 113.734 72.8389C112.154 80.2081 108.996 87.1097 103.834 92.9252C103.148 93.6972 102.185 94.1596 101.16 94.2146L100.924 94.2198C99.8297 94.1997 98.8299 93.747 98.1198 92.9749L97.5999 92.3703L97.3451 92.0807L96.8034 91.4796L96.2101 90.8383C96.0034 90.6194 95.7888 90.3934 95.5663 90.1631C93.6714 88.1976 91.5794 86.2495 89.3574 84.4567C83.1999 79.4875 77.2597 76.6818 72.1867 76.9863C63.8892 77.4844 57.0173 77.0971 50.6418 75.3078C42.4001 72.9959 35.9278 68.4585 31.6451 61.235L31.405 60.8232C29.1877 56.9567 25.9129 52.5022 22.05 47.8663C20.8562 46.4329 19.6787 45.0702 18.5563 43.8104L18.0788 43.2765C17.3142 42.4259 16.6877 41.7481 16.4251 41.4724C15.4557 40.4508 15.1188 38.9852 15.5423 37.6452L15.6045 37.4637C16.0698 36.2118 17.1518 35.2836 18.4707 35.0227L25.5426 33.6251L25.625 33.5065C28.1555 29.9095 31.7685 26.8631 36.5681 25.6356C41.574 24.3558 46.8416 25.469 52.1467 28.8347L52.5165 29.0729C59.6816 33.7595 66.783 33.5004 73.5354 29.9706C78.3581 27.4485 82.9557 23.1658 86.4383 17.9253C89.6775 13.052 91.6021 7.8429 91.7399 3.73125C91.7966 2.01349 92.9822 0.538249 94.6485 0.117749C96.3166 -0.304495 98.0614 0.434432 98.9242 1.9245ZM95.9589 3.91358L95.9135 4.26604C95.2923 8.77637 93.551 15.0568 90.4025 19.7949C86.5255 25.6278 81.0547 30.0884 75.5568 32.9638C67.6257 37.1104 58.9924 37.8694 50.4917 32.4823L50.1166 32.2406C45.6498 29.3189 42.2597 27.9126 37.6089 29.0729C32.9581 30.2341 30.6986 33.6216 28.6909 36.7649L28.5989 36.8975C28.277 37.3276 27.8063 37.6251 27.2756 37.7298L18.457 39.1265L21.6684 43.116C22.635 44.326 23.322 45.1976 23.7295 45.7315L27.2594 50.3823C37.779 64.1794 49.1002 77.3527 71.1773 72.7926L71.9258 72.6321C77.7744 71.3314 82.6782 74.8236 88.8304 79.9699L90.1452 81.077C91.7722 82.4545 96.6926 86.7913 98.7061 88.8798L99.3639 89.5699L99.9711 90.2233C100.098 90.3612 100.218 90.4937 100.333 90.6202L100.96 91.3278L101.346 90.8732C105.51 85.8595 108.118 78.2234 109.469 71.9246C109.979 69.5447 110.272 67.2659 110.394 65.1634L110.409 64.8895C110.44 64.2745 110.454 63.7379 110.457 63.2904V62.9571L109.828 63.1421C102.546 65.2071 94.3536 65.4121 86.3598 64.4899C84.4291 64.2675 105.612 47.1099 101.264 24.8906C100.273 19.8271 99.6439 13.0564 97.913 8.46056C97.3678 7.01062 96.8016 5.68544 96.2407 4.50071L95.9589 3.91358Z" fill="#E7EAEE"/>
<path fill-rule="evenodd" clip-rule="evenodd" d="M40.6623 43.184C42.346 43.184 43.7157 41.8143 43.7157 40.1306C43.7157 38.4468 42.346 37.0771 40.6623 37.0771C38.9786 37.0771 37.6089 38.4468 37.6089 40.1306C37.6089 41.8143 38.9786 43.184 40.6623 43.184Z" fill="#00160A"/>
<path d="M43.2794 55.3978C45.9294 55.3978 48.0777 53.6401 48.0777 51.472C48.0777 49.3038 45.9294 47.5461 43.2794 47.5461C40.6294 47.5461 38.4812 49.3038 38.4812 51.472C38.4812 53.6401 40.6294 55.3978 43.2794 55.3978Z" fill="#FFB61D"/>
<path d="M43.2794 55.3978C45.9294 55.3978 48.0777 53.6401 48.0777 51.472C48.0777 49.3038 45.9294 47.5461 43.2794 47.5461C40.6294 47.5461 38.4812 49.3038 38.4812 51.472C38.4812 53.6401 40.6294 55.3978 43.2794 55.3978Z" fill="#FFB61D"/>
<path fill-rule="evenodd" clip-rule="evenodd" d="M98.9248 1.9245L99.1447 2.31795L99.4134 2.82221C99.5748 3.13278 99.7571 3.49309 99.9551 3.9005C100.641 5.31118 101.333 6.90768 101.996 8.66819C103.863 13.6235 105.167 18.9713 105.613 24.5434C106.217 32.1045 105.126 39.2399 102.361 45.7315L102.125 46.2767C99.8792 51.348 96.6077 55.9945 92.36 60.1628L91.9395 60.5702L92.2972 60.5877C98.4136 60.845 104.461 60.2972 109.778 58.6021C110.919 58.2383 112.162 58.4259 113.144 59.1089C114.125 59.7912 114.734 60.8887 114.795 62.0812L114.809 62.4511L114.817 62.9406V63.129C114.817 63.8112 114.797 64.5772 114.749 65.4156C114.614 67.7318 114.293 70.2304 113.735 72.8389C112.155 80.2081 108.997 87.1097 103.835 92.9251C103.149 93.6972 102.185 94.1596 101.161 94.2146L100.924 94.2198C99.8295 94.1997 98.8306 93.7469 98.1205 92.9749L97.6005 92.3703L97.3458 92.0807L96.804 91.4796L96.2099 90.8383C96.004 90.6194 95.7894 90.3934 95.5669 90.1631C93.6712 88.1976 91.58 86.2495 89.358 84.4567C83.1997 79.4875 77.2604 76.6818 72.1873 76.9863C63.889 77.4844 57.018 77.0971 50.6424 75.3078C42.3999 72.9959 35.9284 68.4585 31.6456 61.235L31.4055 60.8232C29.1882 56.9567 25.9134 52.5022 22.0504 47.8663C20.8566 46.4329 19.6792 45.0702 18.5568 43.8104L18.0793 43.2765C17.3147 42.4259 16.6882 41.7481 16.4257 41.4724C15.4562 40.4508 15.1193 38.9852 15.5428 37.6452L15.605 37.4637C16.0703 36.2118 17.1524 35.2836 18.4712 35.0227L25.5431 33.6251L25.6256 33.5065C28.156 29.9095 31.769 26.8631 36.5679 25.6356C41.292 24.4273 46.2499 25.3512 51.2514 28.2877C56.7911 26.4304 61.5484 22.1931 65.5309 16.2389C67.4772 13.3295 69.1077 10.2019 70.4321 7.06907C70.8979 5.96635 71.2923 4.94215 71.6177 4.01828C71.732 3.69549 71.8288 3.40759 71.9108 3.15633L72.0181 2.8161C72.4212 1.54413 73.53 0.621997 74.856 0.461474C76.1507 0.302697 77.3633 0.914253 78.111 1.97597C78.5262 2.56397 78.9197 3.16157 79.2922 3.76702C82.774 9.42544 84.2562 15.2261 84.4577 20.6542C85.1504 19.7792 85.8126 18.8675 86.439 17.9253C89.6773 13.052 91.6027 7.8429 91.7397 3.73125C91.7973 2.01349 92.9829 0.538249 94.6492 0.117749C96.3172 -0.304495 98.062 0.434432 98.9248 1.9245ZM73.5361 29.9706C66.9773 33.3992 60.0888 33.742 53.1331 29.4637C57.8162 27.2984 65.3302 22.8151 68.4316 18.1792C70.5106 15.0708 72.2414 11.7513 73.646 8.42741C74.07 7.42502 74.439 6.4802 74.7557 5.6078L74.9092 5.17857C75.0323 4.82699 75.1387 4.51205 75.2294 4.23463C75.2521 4.03572 75.273 3.96942 75.2931 4.03485C81.9374 8.58096 82.4285 17.6034 82.2933 23.1667C79.6229 26.0168 76.6262 28.3549 73.5361 29.9706ZM75.5574 32.9638C78.2183 31.5715 80.8739 29.8083 83.3454 27.6971C83.5347 27.5872 83.7031 27.4406 83.8392 27.2679C86.2819 25.1139 88.5284 22.6145 90.4023 19.7949C93.5517 15.0568 95.2921 8.77637 95.9142 4.26604L95.9595 3.91358L96.2413 4.50071C96.8023 5.68544 97.3676 7.01062 97.9137 8.46056C99.1185 11.6588 99.7894 15.91 100.42 19.9065V19.9074C100.695 21.6531 100.963 23.3508 101.265 24.8906C104.597 41.9208 92.9314 55.977 88.1698 61.714C86.719 63.4623 85.9094 64.4376 86.3605 64.4899C94.3543 65.4121 102.546 65.2071 109.828 63.1421L110.457 62.9571V63.2904C110.455 63.7379 110.441 64.2745 110.409 64.8895L110.394 65.1634C110.272 67.2659 109.979 69.5447 109.47 71.9246C108.119 78.2234 105.511 85.8595 101.347 90.8732L100.961 91.3278L100.333 90.6202C100.219 90.4937 100.098 90.3611 99.9717 90.2233L99.3645 89.5699L98.7067 88.8798C96.6932 86.7913 91.7728 82.4545 90.1458 81.077L88.8311 79.9699C82.6789 74.8236 77.7751 71.3314 71.9265 72.6321L71.178 72.7926C49.1009 77.3527 37.7797 64.1794 27.2598 50.3823L23.7301 45.7315C23.3225 45.1976 22.6355 44.326 21.6689 43.116L18.4574 39.1265L27.2761 37.7298C27.8068 37.6251 28.2775 37.3276 28.5994 36.8975L28.6914 36.7649C30.6992 33.6216 32.9579 30.2341 37.6095 29.0729C42.2603 27.9126 45.6505 29.3189 50.1172 32.2406L50.4924 32.4823C58.9931 37.8694 67.6255 37.1104 75.5574 32.9638ZM424.616 153.409C426.331 152.575 429.407 154.192 427.622 156.794C424.921 160.733 427.922 169.879 429.751 175.449V175.45V175.451C430.596 178.027 431.191 179.839 430.853 180.016C429.786 180.573 428.468 180.16 427.91 179.093C424.889 173.312 423.154 168.722 422.721 165.232C422.506 163.496 422.458 161.816 422.58 160.195L422.596 160.009L408.629 166.798L408.452 166.96C405.299 169.918 403.912 173.351 406.219 179.434L406.355 179.787C408.86 186.164 413.1 190.738 417.512 190.548L417.856 190.531C427.66 190.334 433.519 187.384 435.61 183.791C438.239 179.275 438.953 174.063 434.047 163.922C433.523 162.838 430.832 155.34 434.639 159.211C438.445 163.081 443.751 180.188 440.319 186.082C437.454 191.003 430.102 193.47 420.027 193.949C420.085 194.205 420.098 194.478 420.058 194.753C419.104 201.23 416.147 205.304 411.204 206.483C407.424 207.384 403.361 206.19 399.64 203.313C386.565 206.121 373.909 210.4 361.67 216.152L359.857 217.01C353.612 219.993 350.032 221.992 347.417 223.936C345.884 225.075 344.617 226.244 343.255 227.746L343.035 227.996C342.374 228.762 340.935 230.52 339.297 232.521L339.294 232.525L339.292 232.528L339.291 232.528L339.29 232.53L339.285 232.536L339.282 232.54C337.102 235.201 334.576 238.288 333.066 240.035L332.337 240.876C326.194 247.913 318.453 255.898 307.812 265.934L307.514 266.207C303.524 269.771 292.923 275.799 279.702 281.877C316.187 280.58 342.496 266.655 358.88 240.076C359.601 238.907 361.21 238.687 362.219 239.62C390.391 265.712 423.034 277.787 460.274 275.902C497.612 274.01 525.012 264.306 542.559 246.883C543.413 246.034 544.794 246.039 545.643 246.894C546.492 247.748 546.486 249.129 545.632 249.978C527.225 268.256 488.146 281.971 449.822 283.911C412.552 285.798 390.314 270.442 361.879 245.202L361.185 244.581L360.936 244.963C342.927 272.254 303.802 292.16 264.758 292.442L263.534 292.446C223.598 292.446 200.565 273.108 173.622 246.678L173.412 246.471L173.316 246.553L172.612 247.146L171.588 248.006L170.962 248.534C145.715 269.779 126.878 285.633 98.5401 289.682L97.6363 289.809C65.6862 296.272 17.2289 279.054 9.78241 270.613C2.95959 262.88 10.9178 267.687 13.1025 269.007H13.1027C13.3023 269.128 13.4537 269.219 13.5412 269.269C34.6879 281.376 59.0699 285.987 88.3234 281.997C92.36 281.446 96.3722 280.717 100.358 279.81L100.312 279.38C99.0348 267.249 99.0269 261.947 100.868 255.861C103.371 247.583 109.449 241.293 120.382 236.293L123.392 234.962C136.897 229.01 147.623 224.541 158.747 220.2L159.562 219.882C160.81 219.397 162.074 218.908 163.364 218.414L164.628 217.931C165.085 217.77 171.03 215.413 180.07 211.829L180.073 211.828L180.097 211.818L180.101 211.817L180.103 211.816C201 203.531 238.388 188.709 262.779 179.278C268.056 177.249 274.444 176.575 282.28 176.98L282.955 177.017C288.826 177.363 294.599 178.159 304.064 179.797L312.381 181.254C321.667 182.861 326.166 183.495 331.42 183.869C333.072 183.987 334.641 184.133 336.132 184.271H336.133C341.657 184.784 346.103 185.198 349.646 183.706C352.797 182.379 355.885 181.097 358.911 179.842H358.912C368.811 175.736 378.045 171.906 386.614 167.646C387.202 163.835 388.703 161.022 391.056 159.169C394.685 156.311 399.823 156.263 404.279 157.995C405.402 158.432 405.958 159.696 405.521 160.818C405.38 161.182 404.473 161.015 403.189 160.778C400.503 160.283 396.172 159.484 393.754 162.595C391.066 166.058 390.172 171.361 392.554 181.804C394.28 189.372 405.467 202.24 410.192 202.24C415.461 202.24 416.693 197.125 417.391 194.225L417.435 194.043C411.169 194.205 406.409 190.24 403.319 182.631L403.168 182.254C399.989 174.162 400.861 167.675 406 163.302C406.094 163.223 406.194 163.151 406.299 163.089L406.461 163.002L424.616 153.409ZM395.615 199.37C395.394 199.103 395.176 198.829 394.961 198.549C394.878 198.462 394.8 198.374 394.732 198.292C394.533 198.05 394.33 197.805 394.122 197.555C392.432 195.525 390.473 193.172 388.94 189.78L388.717 189.286C386.257 183.775 385.964 177.584 386.115 172.48L386.137 171.887L386.007 171.953C375.843 176.983 364.786 182.03 352.837 187.093L351.339 187.726C346.222 189.881 339.833 191.403 331.736 190.88L331.11 190.837C325.578 190.443 320.926 189.781 311.17 188.088L303.886 186.811C283.352 183.256 273.077 182.701 264.61 185.867C264.61 185.867 138.345 233.365 122.173 240.269C112.338 244.768 109.001 249.002 104.934 255.861C102.83 259.409 103.043 269.196 103.191 275.994V275.996C103.215 277.135 103.238 278.191 103.248 279.119C127.123 273.148 150.072 260.735 172.112 241.854C172.981 241.109 174.277 241.163 175.082 241.976C176.865 243.779 178.678 245.52 180.52 247.201L271.446 209.213C271.695 209.109 271.953 209.055 272.207 209.045C272.892 208.722 273.631 208.455 274.423 208.244C282.352 206.136 288.684 209.566 293.058 218.007L300.984 212.226C302.153 211.373 303.813 211.874 304.314 213.231C311.547 232.777 309.44 246.17 297.531 252.633C285.52 259.15 275.076 253.776 266.933 237.487C266.52 236.661 266.682 235.706 267.254 235.062C265.313 227.176 264.952 220.893 266.273 216.343L186.61 252.445C198.522 262.116 211.602 269.41 225.86 274.33C226.186 274.017 226.539 273.749 226.887 273.559C238.896 266.981 268.485 259.296 275.794 257.398C276.426 257.234 276.891 257.113 277.164 257.039C280.594 256.121 277.081 259.325 276.045 259.803L275.913 259.859L232.727 276.489C245.575 280.149 259.331 281.977 274.003 281.977C274.838 281.977 275.666 281.971 276.491 281.958L277.457 281.33H277.457L277.458 281.329L277.46 281.328C286.695 275.325 302.138 265.288 304.819 262.76L306.07 261.577C314.961 252.949 321.578 244.672 327.356 237.447C333.693 229.519 339.018 222.86 345.223 218.391C350.048 214.917 351.796 214.123 355.906 212.258C357.005 211.759 358.273 211.183 359.814 210.459C370.714 205.336 383.093 202.371 394.712 199.586L395.615 199.37ZM275.544 212.46C281.826 210.79 286.532 213.74 290.119 221.978L280.852 229.325L280.842 229.328L271.268 233.107L271.029 232.056C268.406 220.17 270.114 213.903 275.544 212.46ZM290.119 221.978L280.86 229.322C281.046 229.249 281.237 229.203 281.428 229.182C281.603 229.163 281.778 229.166 281.949 229.19C282.356 229.244 282.742 229.413 283.06 229.678C283.269 229.853 283.446 230.067 283.581 230.318C285.766 234.253 287.456 235.19 289.171 234.228C290.988 233.21 291.558 229.381 290.231 222.54L290.119 221.978ZM169.987 311.532C171 310.879 177.992 307.468 171.766 313.88C165.539 320.292 117.047 347.493 90.8717 349C65.6426 350.451 43.2427 339.915 23.7534 326.125L23.1075 325.665L22.9788 325.83C22.1161 326.924 21.2295 327.917 20.3185 328.808L19.9267 329.184C18.2759 330.733 15.4189 332.488 11.291 334.527C10.211 335.06 6.39495 335.551 8.36955 333.536C10.3442 331.523 14.6661 328.624 17.1831 326.961C18.828 325.875 19.3476 324.605 19.863 323.344C20.1362 322.676 20.4083 322.01 20.8464 321.376C21.55 320.359 22.9585 320.129 23.9485 320.871C43.1615 335.271 65.605 342.947 90.8717 341.493C116.242 340.032 142.445 329.253 169.987 311.532ZM319.211 325.437C320.095 324.62 320.095 318.793 319.211 319.609C309.411 328.652 288.895 336.606 263.578 338.062C238.23 339.521 218.3 335.536 203.751 326.18C202.739 325.529 197.723 323.806 200.737 326.835C203.751 329.864 237.63 345.67 263.829 344.161L264.613 344.115C290.427 342.54 308.627 335.204 319.211 325.437ZM301.316 217.868L301.185 217.477L294.619 222.268L294.739 222.945C296.06 230.668 295.159 235.716 291.497 237.922L291.305 238.033C287.487 240.173 283.894 238.661 280.889 234.263L280.758 234.067L271.928 237.634L272.132 238.004C278.881 250.183 286.362 253.571 295.166 248.951L295.45 248.799C304.291 244.001 306.469 234.21 301.622 218.818L301.316 217.868ZM43.7164 40.1306C43.7164 41.8144 42.3467 43.1841 40.663 43.1841C38.9792 43.1841 37.6095 41.8144 37.6095 40.1306C37.6095 38.4469 38.9792 37.0772 40.663 37.0772C42.3467 37.0772 43.7164 38.4469 43.7164 40.1306Z" fill="#00160A"/>
</svg>
