<svg width="29" height="31" viewBox="0 0 29 31" fill="none" xmlns="http://www.w3.org/2000/svg">
<path d="M11.2601 15.3698C11.2601 13.6014 12.5863 12.1675 14.2226 12.1675C15.859 12.1675 17.1858 13.6014 17.1858 15.3698C17.1858 17.1382 15.859 18.5721 14.2226 18.5721C12.5863 18.5721 11.2601 17.1382 11.2601 15.3698ZM9.65829 15.3698C9.65829 18.0941 11.7017 20.3024 14.2226 20.3024C16.7435 20.3024 18.787 18.0941 18.787 15.3698C18.787 12.6455 16.7435 10.4372 14.2226 10.4372C11.7017 10.4372 9.65829 12.6455 9.65829 15.3698ZM17.901 10.2416C17.9009 10.4696 17.9634 10.6925 18.0805 10.8821C18.1977 11.0717 18.3642 11.2195 18.5591 11.3069C18.7539 11.3942 18.9684 11.4171 19.1753 11.3727C19.3823 11.3283 19.5724 11.2186 19.7216 11.0575C19.8708 10.8963 19.9725 10.691 20.0137 10.4674C20.055 10.2438 20.0339 10.012 19.9533 9.80134C19.8726 9.59067 19.736 9.41058 19.5606 9.28384C19.3853 9.1571 19.1791 9.0894 18.9681 9.08931H18.9677C18.6849 9.08946 18.4137 9.21089 18.2137 9.42694C18.0137 9.64299 17.9012 9.93599 17.901 10.2416V10.2416ZM10.6315 23.189C9.76489 23.1463 9.29385 22.9903 8.98082 22.8585C8.56581 22.6839 8.2697 22.476 7.95838 22.14C7.64706 21.804 7.45434 21.4843 7.29349 21.0358C7.17146 20.6977 7.02711 20.1885 6.98771 19.2519C6.94462 18.2393 6.93602 17.9352 6.93602 15.3699C6.93602 12.8046 6.94533 12.5013 6.98771 11.4878C7.02718 10.5513 7.1726 10.0431 7.29349 9.70395C7.45506 9.25546 7.64748 8.93546 7.95838 8.59902C8.26928 8.26257 8.5651 8.05431 8.98082 7.88048C9.2937 7.74861 9.76489 7.5926 10.6315 7.55003C11.5685 7.50346 11.8499 7.49416 14.2226 7.49416C16.5953 7.49416 16.8771 7.50423 17.8148 7.55003C18.6814 7.59268 19.1517 7.74984 19.4655 7.88048C19.8805 8.05431 20.1766 8.26303 20.4879 8.59902C20.7993 8.935 20.9913 9.25546 21.1528 9.70395C21.2749 10.0421 21.4192 10.5513 21.4586 11.4878C21.5017 12.5013 21.5103 12.8046 21.5103 15.3699C21.5103 17.9352 21.5017 18.2385 21.4586 19.2519C21.4191 20.1885 21.2741 20.6975 21.1528 21.0358C20.9913 21.4843 20.7988 21.8043 20.4879 22.14C20.177 22.4756 19.8805 22.6839 19.4655 22.8585C19.1526 22.9904 18.6814 23.1464 17.8148 23.189C16.8778 23.2355 16.5964 23.2448 14.2226 23.2448C11.8489 23.2448 11.5682 23.2355 10.6315 23.189V23.189ZM10.5579 5.82185C9.61164 5.86842 8.96503 6.03057 8.40034 6.26803C7.81552 6.51326 7.32044 6.84225 6.82572 7.37604C6.331 7.90983 6.02736 8.4457 5.80044 9.07771C5.58071 9.68835 5.43066 10.3868 5.38757 11.4094C5.34377 12.4336 5.33374 12.7611 5.33374 15.3698C5.33374 17.9785 5.34377 18.306 5.38757 19.3302C5.43066 20.3529 5.58071 21.0512 5.80044 21.6619C6.02736 22.2935 6.33107 22.83 6.82572 23.3636C7.32037 23.8971 7.81552 24.2257 8.40034 24.4716C8.9661 24.709 9.61164 24.8712 10.5579 24.9178C11.5062 24.9643 11.8087 24.9759 14.2226 24.9759C16.6366 24.9759 16.9396 24.9651 17.8873 24.9178C18.8337 24.8712 19.4799 24.709 20.0449 24.4716C20.6294 24.2257 21.1248 23.8974 21.6195 23.3636C22.1143 22.8298 22.4173 22.2935 22.6448 21.6619C22.8645 21.0512 23.0153 20.3528 23.0577 19.3302C23.1008 18.3052 23.1108 17.9785 23.1108 15.3698C23.1108 12.7611 23.1008 12.4336 23.0577 11.4094C23.0146 10.3867 22.8645 9.68797 22.6448 9.07771C22.4173 8.44609 22.1135 7.91068 21.6195 7.37604C21.1256 6.8414 20.6294 6.51326 20.0456 6.26803C19.4799 6.03057 18.8336 5.86765 17.8881 5.82185C16.9403 5.77528 16.6373 5.76367 14.2233 5.76367C11.8094 5.76367 11.5062 5.77451 10.5579 5.82185Z" fill="#666666"/>
</svg>
