<svg width="50" height="42" viewBox="0 0 50 42" fill="none" xmlns="http://www.w3.org/2000/svg">
<circle cx="18.8456" cy="18.8539" r="18.8456" fill="#FDA310"/>
<path d="M49.269 3.77805C49.0576 4.08582 48.7502 4.29101 48.4555 4.50902C45.9384 6.30438 43.4276 8.09974 40.9168 9.90151C40.7374 10.0297 40.5581 10.1772 40.4044 10.3375C37.1121 13.6333 33.8263 16.9355 30.5341 20.2312C30.3164 20.4492 30.1562 20.6801 30.1114 20.9879C30.0153 21.5778 30.4188 22.0907 31.0145 22.1292C31.322 22.1484 31.6422 22.1164 31.9432 22.1677C33.7303 22.4754 34.5373 24.508 33.5061 26.0533C33.1858 26.5342 32.7567 26.8933 32.2699 27.1947C31.5974 27.6114 30.9248 28.0411 30.1754 28.2975C28.5485 28.8618 27.8248 30.0673 27.6198 31.7023C27.4213 33.2476 27.1074 34.7865 26.2235 36.1074C24.0714 39.3326 21.1699 41.3139 17.1603 41.2305C15.4181 41.1921 13.8105 40.6022 12.3437 39.6788C9.83931 38.1015 7.85373 36.0304 6.69441 33.2732C5.30451 29.9839 5.74646 26.8869 7.77047 23.9694C9.60232 21.3213 12.2156 20.0196 15.3028 19.5067C15.6231 19.4554 15.9434 19.4041 16.2572 19.3271C17.3781 19.045 18.1979 18.4295 18.6463 17.3138C19.1331 16.0955 19.7095 14.9157 20.6511 13.9539C22.6431 11.9341 25.9673 11.6007 28.3052 13.2101C28.5614 13.3832 28.824 13.5628 29.0481 13.7679C29.3044 14.0052 29.4773 13.9667 29.7143 13.7231C31.0593 12.3509 32.4172 10.998 33.7751 9.63862C34.185 9.22825 34.5629 8.77941 35.0049 8.41392C36.4268 7.25976 37.2723 5.79783 37.7334 4.02171C38.1177 2.5213 38.201 2.54695 39.719 2.37382C40.1247 2.3268 40.3104 2.10238 40.2763 1.70056C40.257 1.46332 40.2314 1.21966 40.3403 0.995241C40.5261 0.623345 40.8399 0.469455 41.2434 0.507927C41.6405 0.546399 41.916 0.828528 42.012 1.29019C42.1188 1.7946 42.4241 2.00406 42.928 1.91857C42.9856 1.91216 43.0369 1.89292 43.0945 1.88651C43.4959 1.82239 43.6667 1.58301 43.6069 1.16836C43.5236 0.578459 43.8183 0.110387 44.3435 0.0206189C44.8303 -0.0627371 45.2594 0.283509 45.3747 0.860589C45.3939 0.969593 45.4003 1.08501 45.4131 1.19401C45.4452 1.4569 45.5797 1.55309 45.8487 1.5082C46.2522 1.43767 46.6557 1.39278 47.0592 1.33508C47.3603 1.29019 47.6293 1.36713 47.8407 1.57873C48.3274 2.06604 48.8591 2.51488 49.269 3.07914V3.75881V3.77805ZM17.6087 39.4737C20.9777 39.23 23.4053 37.5436 25.0065 34.6005C25.5574 33.581 25.7111 32.4333 25.8776 31.2984C26.1915 29.176 27.1843 27.573 29.2659 26.7651C30.0537 26.4573 30.7903 26.0277 31.4949 25.5596C31.6999 25.425 31.8856 25.2839 32.0137 25.0659C32.3468 24.4888 32.1098 23.9887 31.4565 23.9053C31.3027 23.8861 31.149 23.8861 30.9889 23.8861C29.9577 23.8989 29.2083 23.4116 28.6831 22.5652C28.5037 22.2703 28.414 22.3408 28.2283 22.5267C27.6582 23.1102 27.0818 23.6937 26.4925 24.2644C26.0698 24.6748 25.583 24.7196 25.1731 24.3285C24.3532 23.5527 23.559 22.7512 22.784 21.9304C22.4125 21.5393 22.4381 21.1289 22.7712 20.7057C22.8737 20.5711 22.9953 20.4557 23.117 20.3338C24.6799 18.7629 26.2427 17.192 27.812 15.6274C27.9593 15.4735 28.1322 15.3645 27.8824 15.1209C26.294 13.6012 23.4629 13.6333 21.9193 15.1914C21.2211 15.9031 20.8176 16.788 20.4269 17.6793C20.1323 18.3525 19.844 19.0258 19.3252 19.5708C18.3581 20.5967 17.1155 21.0456 15.764 21.2507C13.3621 21.6098 11.2292 22.469 9.65356 24.4311C7.62315 26.9446 7.03388 29.6761 8.39817 32.6769C9.59592 35.3123 11.5174 37.2872 14.0923 38.6016C15.1876 39.1595 16.3533 39.4672 17.6151 39.4608L17.6087 39.4737ZM38.6878 9.47832C38.6942 9.33725 38.6301 9.27955 38.5725 9.22184C38.406 9.04871 38.233 8.882 38.0665 8.70888C37.5733 8.22156 37.6822 8.24721 37.2403 8.69605C33.3203 12.633 29.4004 16.5764 25.4805 20.5134C24.6671 21.3341 24.6735 21.3213 25.4997 22.1484C25.7303 22.3793 25.8776 22.3921 26.1146 22.1484C27.1202 21.1161 28.145 20.1094 29.157 19.0899C32.2507 15.9801 35.3443 12.8703 38.4316 9.76044C38.5277 9.66426 38.6173 9.55526 38.6878 9.47832ZM46.6877 3.20738C45.9448 3.31638 45.1954 3.4318 44.4396 3.53439C42.96 3.74599 41.4804 3.95758 40.0008 4.15636C39.6614 4.20124 39.45 4.32948 39.3539 4.69496C39.1938 5.29128 38.9824 5.88118 38.7711 6.46468C38.6942 6.68268 38.7262 6.83657 38.8864 6.99687C39.2322 7.3303 39.5717 7.66372 39.9048 8.01638C40.0713 8.19591 40.2058 8.20874 40.4108 8.06126C42.5308 6.53521 44.6509 5.02197 46.7774 3.50233C46.8543 3.45103 46.9824 3.41256 46.9568 3.29715C46.9247 3.17532 46.7966 3.2202 46.6877 3.20738Z" fill="black"/>
<path d="M16.2572 34.1965C15.9498 34.1773 15.7064 34.0555 15.495 33.8503C14.3613 32.7154 13.2212 31.5868 12.0939 30.4391C11.6455 29.9838 11.6327 29.4709 12.017 29.0926C12.3885 28.7271 12.9137 28.7591 13.3621 29.2016C14.5022 30.3301 15.6359 31.4714 16.7632 32.6063C17.0514 32.8949 17.1923 33.2347 17.0258 33.6387C16.8849 33.9849 16.5967 34.1452 16.2508 34.1965H16.2572Z" fill="black"/>
<path d="M23.085 27.4448C23.085 27.977 22.3805 28.4001 21.7912 28.086C21.7784 28.0795 21.7656 28.0731 21.7528 28.0667C20.792 27.2396 19.8761 26.3611 19.0818 25.3801C18.6847 24.8864 19.0434 24.1746 19.6711 24.0592C19.9914 24.0015 20.2604 24.1234 20.4781 24.3349C21.2532 25.098 22.0154 25.861 22.7776 26.6369C22.9569 26.8228 23.0786 27.0472 23.0786 27.4448H23.085Z" fill="black"/>
<path d="M20.6832 29.6696C20.6896 30.0415 20.5422 30.3044 20.2476 30.4711C19.9594 30.6379 19.6519 30.6379 19.3637 30.4583C19.2356 30.3814 19.1139 30.2724 19.005 30.1634C18.2941 29.4581 17.5831 28.7527 16.8849 28.0346C16.4558 27.5986 16.4366 27.0407 16.8145 26.6817C17.1796 26.329 17.7048 26.3546 18.1339 26.7778C18.8769 27.5088 19.6135 28.2526 20.3501 28.99C20.5422 29.1823 20.6896 29.4068 20.6832 29.6696Z" fill="black"/>
<path d="M22.2075 33.626C22.6687 33.626 23.0722 34.0171 23.085 34.4852C23.0978 34.9597 22.6815 35.3957 22.2075 35.3957C21.7592 35.3957 21.3364 34.9917 21.3236 34.5365C21.3044 34.0748 21.7335 33.6324 22.2075 33.6324V33.626Z" fill="black"/>
<path d="M17.7496 35.7226C17.7496 35.2224 18.1275 34.8313 18.6207 34.8377C19.0946 34.8377 19.4789 35.2224 19.4853 35.6969C19.4918 36.1778 19.0818 36.5946 18.6014 36.5946C18.1275 36.5946 17.7432 36.2035 17.7432 35.729L17.7496 35.7226Z" fill="black"/>
</svg>
