<svg width="18" height="17" viewBox="0 0 18 17" fill="none" xmlns="http://www.w3.org/2000/svg">
<path d="M14.625 15.9375H7.875C7.57663 15.9375 7.29048 15.8256 7.07951 15.6263C6.86853 15.427 6.75 15.1568 6.75 14.875V13.2812H7.875V14.875H14.625V2.125H7.875V3.71875H6.75V2.125C6.75 1.84321 6.86853 1.57296 7.07951 1.3737C7.29048 1.17444 7.57663 1.0625 7.875 1.0625H14.625C14.9234 1.0625 15.2095 1.17444 15.4205 1.3737C15.6315 1.57296 15.75 1.84321 15.75 2.125V14.875C15.75 15.1568 15.6315 15.427 15.4205 15.6263C15.2095 15.8256 14.9234 15.9375 14.625 15.9375Z" fill="black" stroke="black" stroke-width="0.5"/>
<path d="M8.20688 10.9384L10.2206 9.03125H2.25V7.96875H10.2206L8.20688 6.06156L9 5.3125L12.375 8.5L9 11.6875L8.20688 10.9384Z" fill="black" stroke="black" stroke-width="0.5"/>
</svg>
