<svg width="26" height="26" viewBox="0 0 26 26" fill="none" xmlns="http://www.w3.org/2000/svg">
<path fill-rule="evenodd" clip-rule="evenodd" d="M12.6137 3.8063C12.8647 3.72472 13.1352 3.72472 13.3862 3.8063C13.4829 3.8377 13.6096 3.90516 13.8292 4.0916C14.0555 4.28373 14.3276 4.55499 14.7324 4.95976L17.8858 8.11323C17.886 8.11338 17.8861 8.11353 17.8863 8.11369L18.6471 8.87447C18.6495 8.87692 18.652 8.87937 18.6544 8.88181C19.1928 9.42027 19.374 9.60853 19.5017 9.81704C19.6251 10.0184 19.716 10.2378 19.7711 10.4674C19.8285 10.7063 19.8333 10.9688 19.8333 11.7382V17.95C19.8333 18.8025 19.8327 19.3967 19.7949 19.8593C19.7578 20.3132 19.6887 20.574 19.5881 20.7715C19.3723 21.1949 19.0281 21.5391 18.6048 21.7548C18.4073 21.8554 18.1465 21.9246 17.6926 21.9616C17.23 21.9994 16.6357 22 15.7833 22H10.2166C9.36417 22 8.76994 21.9994 8.30731 21.9616C7.85343 21.9246 7.59266 21.8554 7.39515 21.7548C6.97178 21.5391 6.62758 21.1949 6.41186 20.7715C6.31122 20.574 6.24209 20.3132 6.20501 19.8593C6.16721 19.3967 6.16663 18.8025 6.16663 17.95V11.7382C6.16663 10.9688 6.17145 10.7063 6.22879 10.4674C6.28391 10.2378 6.37482 10.0184 6.49819 9.81704C6.62654 9.60758 6.80875 9.41856 7.35284 8.87447L8.11362 8.11369L11.2675 4.95976C11.6723 4.55499 11.9444 4.28373 12.1707 4.0916C12.3903 3.90516 12.517 3.8377 12.6137 3.8063ZM7.05335 7.05264L10.2069 3.8991L10.2284 3.87758L10.2285 3.87754C10.6061 3.49984 10.9214 3.18459 11.2 2.94809C11.4905 2.70142 11.7902 2.49668 12.1502 2.37971C12.7025 2.20025 13.2974 2.20025 13.8498 2.37971C14.2097 2.49668 14.5094 2.70142 14.8 2.94809C15.0786 3.1846 15.3938 3.49986 15.7715 3.87757L15.793 3.8991L18.947 7.05303L19.7077 7.81381L19.7682 7.87423C19.8072 7.91326 19.8453 7.95128 19.8823 7.9884L24.3636 12.4697C24.6565 12.7626 24.6565 13.2375 24.3636 13.5304C24.0707 13.8232 23.5959 13.8232 23.303 13.5304L21.3333 11.5607C21.3333 11.5909 21.3333 11.6216 21.3333 11.6527V11.6528L21.3333 11.7382V17.95V17.9821C21.3333 18.795 21.3333 19.4506 21.2899 19.9815C21.2453 20.5281 21.1509 21.0083 20.9246 21.4525C20.565 22.1581 19.9914 22.7318 19.2858 23.0913C18.8415 23.3176 18.3614 23.412 17.8148 23.4567C17.2839 23.5 16.6282 23.5 15.8154 23.5H15.7833H10.2166H10.1845C9.37167 23.5 8.71606 23.5 8.18516 23.4567C7.63852 23.412 7.15838 23.3176 6.71416 23.0913C6.00855 22.7318 5.43488 22.1581 5.07535 21.4525C4.84901 21.0083 4.75465 20.5281 4.70999 19.9815C4.66661 19.4506 4.66662 18.795 4.66663 17.9821L4.66663 17.95V11.7382L4.66661 11.6528C4.6666 11.6216 4.66659 11.591 4.66659 11.5607L2.69696 13.5304C2.40406 13.8232 1.92919 13.8232 1.6363 13.5304C1.3434 13.2375 1.3434 12.7626 1.6363 12.4697L6.11831 7.98768C6.15513 7.95079 6.19293 7.91301 6.23174 7.87423L6.29214 7.81385L6.29218 7.81381L7.05296 7.05303C7.05309 7.0529 7.05322 7.05277 7.05335 7.05264Z" fill="#FDA310"/>
</svg>
