<svg width="27" height="23" viewBox="0 0 27 23" fill="none" xmlns="http://www.w3.org/2000/svg">
<path d="M0 9.54655C0.347024 8.16749 0.694049 6.78491 1.04107 5.40584C1.11819 5.10055 1.18829 4.79175 1.27242 4.48646C1.41614 3.96361 1.83327 3.70744 2.35906 3.84079C4.0381 4.25486 5.71363 4.67595 7.38916 5.09704C7.93599 5.23389 8.18136 5.64446 8.06218 6.19187C8.0061 6.45505 7.93248 6.71823 7.86588 6.99545C8.00609 7.01651 8.0762 6.92176 8.15682 6.87263C9.56945 5.97782 11.1188 5.51462 12.7838 5.59533C15.7668 5.74622 18.0418 7.1288 19.5771 9.70095C19.6927 9.89746 19.8189 9.96063 20.0363 9.96063C21.151 9.9501 22.2656 9.95361 23.3838 9.95712C24.0323 9.95712 24.3583 10.2835 24.3618 10.9291C24.3618 11.8169 24.3653 12.7047 24.3618 13.5925C24.3583 14.3751 23.8535 14.8804 23.0754 14.8874C22.7669 14.8874 22.4619 14.8944 22.1535 14.8874C21.9642 14.8804 21.8871 14.94 21.8871 15.14C21.8941 16.5823 21.8906 18.0245 21.8871 19.4667C21.8871 19.6281 21.9537 19.7264 22.0799 19.8106C22.3392 19.9791 22.5916 20.151 22.8405 20.33C23.1174 20.53 23.1875 20.8598 23.0123 21.1125C22.837 21.3687 22.511 21.4283 22.2201 21.2458C21.9747 21.0914 21.7363 20.93 21.5015 20.7581C21.3753 20.6633 21.2736 20.6703 21.1475 20.7581C20.9266 20.9195 20.6988 21.0669 20.4709 21.2178C20.1449 21.4283 19.8259 21.3862 19.6367 21.1125C19.4474 20.8388 19.5245 20.53 19.8505 20.2984C20.0853 20.1299 20.3272 19.9685 20.5726 19.8106C20.7058 19.7264 20.7584 19.6211 20.7584 19.4632C20.7549 18.021 20.7584 16.5788 20.7549 15.1365C20.7549 15.0488 20.7899 14.9155 20.6497 14.9084C20.5375 14.9014 20.5305 15.0172 20.5165 15.1014C20.18 16.9788 19.2967 18.5474 17.8735 19.8141C17.5896 20.0668 17.5861 20.0738 17.8139 20.3966C18.0873 20.7826 18.2696 21.1897 18.1434 21.6775C18.0137 22.1863 17.7017 22.5337 17.197 22.6846C16.6817 22.839 16.2225 22.7091 15.8404 22.3337C15.6126 22.1126 15.4619 21.8283 15.2901 21.5652C15.2025 21.4283 15.1148 21.4037 14.9641 21.4494C13.3517 21.9582 11.7357 21.9547 10.1198 21.4599C9.94803 21.4073 9.84637 21.4248 9.75173 21.5862C9.63255 21.7897 9.49584 21.9862 9.35563 22.1757C8.92097 22.7688 8.12177 22.9162 7.50133 22.5161C6.8879 22.1196 6.69511 21.3195 7.05616 20.6809C7.05966 20.6739 7.06668 20.6668 7.07018 20.6598C7.17885 20.4493 7.45576 20.2668 7.40318 20.0598C7.3506 19.8668 7.0842 19.7299 6.91595 19.565C5.47527 18.1508 4.65152 16.4419 4.45523 14.4242C4.39564 13.7961 4.41316 13.1785 4.5043 12.5609C4.53234 12.3679 4.49028 12.2626 4.28698 12.224C4.06264 12.1819 3.8418 12.1187 3.62097 12.0591C3.46323 12.0169 3.3756 12.0591 3.33003 12.224C3.07765 13.1399 2.81826 14.0522 2.56938 14.9681C2.54134 15.0769 2.54134 15.1927 2.54134 15.3085C2.54134 16.663 2.54484 18.0175 2.53433 19.372C2.53433 19.6036 2.60443 19.751 2.80073 19.8668C3.02857 20.0001 3.2424 20.1545 3.45622 20.3054C3.76118 20.5195 3.8383 20.8318 3.66303 21.102C3.48076 21.3792 3.15477 21.4283 2.83228 21.2213C2.59742 21.0704 2.36257 20.9125 2.13472 20.7511C2.01554 20.6668 1.9209 20.6668 1.80523 20.7511C1.57037 20.923 1.33201 21.0844 1.08664 21.2388C0.778172 21.4318 0.455684 21.3687 0.280419 21.0914C0.112165 20.8283 0.185781 20.5195 0.47672 20.3124C0.704565 20.151 0.932405 19.9826 1.17427 19.8387C1.35304 19.7299 1.41964 19.5966 1.41614 19.386C1.40562 18.3228 1.43717 17.256 1.40562 16.1963C1.38108 15.3506 1.48975 14.5365 1.75265 13.7364C1.93843 13.1679 2.07163 12.5854 2.24689 12.0134C2.30999 11.8099 2.28545 11.7046 2.0541 11.6695C1.8543 11.638 1.66501 11.5643 1.46521 11.5292C0.73611 11.3958 0.231348 11.0028 0.00350337 10.287C0.00350337 10.0413 0.00350337 9.7957 0.00350337 9.55006L0 9.54655ZM5.54187 13.7153C5.54187 17.5859 8.66159 20.716 12.5209 20.716C16.2681 20.716 19.514 17.7508 19.521 13.7329C19.528 9.57463 16.1454 6.70069 12.5349 6.71122C8.64406 6.72174 5.53837 9.82728 5.54187 13.7153ZM1.08314 9.89044C1.07963 10.1291 1.22685 10.3115 1.50727 10.3852C2.52731 10.6449 3.55086 10.8976 4.5674 11.1607C4.75669 11.2099 4.82679 11.1467 4.88989 10.9748C5.18083 10.1571 5.58744 9.39917 6.13076 8.72192C6.30252 8.50787 6.39366 8.27627 6.46026 8.01659C6.50933 7.83061 6.46377 7.75341 6.27097 7.7078C4.88989 7.37092 3.51231 7.02352 2.13472 6.67262C1.93843 6.62349 1.8578 6.6656 1.80873 6.86913C1.58789 7.79201 1.35304 8.71139 1.1252 9.63077C1.10417 9.71499 1.09014 9.80272 1.07612 9.89044H1.08314ZM21.9116 12.5679C21.5365 12.5679 21.158 12.5679 20.7829 12.5679C20.6497 12.5679 20.548 12.5959 20.5796 12.7574C20.6322 13.017 20.6217 13.2802 20.6252 13.5434C20.6252 13.6803 20.6707 13.761 20.8215 13.7575C21.5576 13.7575 22.2937 13.7575 23.0298 13.7575C23.1735 13.7575 23.2366 13.6943 23.2331 13.5504C23.2331 13.3153 23.2226 13.0767 23.2331 12.8416C23.2436 12.6416 23.1735 12.5573 22.9632 12.5644C22.6127 12.5784 22.2621 12.5679 21.9116 12.5679ZM2.19431 5.37426C2.15225 5.57076 2.30298 5.57077 2.41515 5.59884C3.78221 5.94273 5.15278 6.27609 6.51985 6.627C6.76171 6.69016 6.81429 6.59191 6.87038 6.39189C6.92997 6.17082 6.85986 6.10415 6.65305 6.05502C5.31753 5.72867 3.98201 5.3918 2.64649 5.05844C2.28194 4.9672 2.23287 5.00229 2.19431 5.37426ZM21.7398 11.0835C21.3017 11.0835 20.8635 11.0835 20.4289 11.0835C20.3658 11.0835 20.2676 11.0555 20.2536 11.1467C20.2431 11.2099 20.2746 11.2836 20.3027 11.3467C20.3517 11.459 20.4639 11.4379 20.5551 11.4379C21.3613 11.4379 22.164 11.4379 22.9702 11.4379C23.0929 11.4379 23.2261 11.4485 23.2261 11.2625C23.2261 11.0765 23.0999 11.0835 22.9737 11.0835C22.5636 11.0835 22.15 11.0835 21.7398 11.0835ZM17.0568 21.3371C17.0007 21.1265 16.8605 20.916 16.6782 20.7581C16.5695 20.6668 16.4328 20.8353 16.3101 20.8949C16.2435 20.93 16.2435 20.9932 16.2821 21.0528C16.3908 21.2143 16.4959 21.3757 16.6116 21.5301C16.6817 21.6248 16.7939 21.6318 16.899 21.5967C17.0007 21.5617 17.0463 21.4774 17.0533 21.3336L17.0568 21.3371ZM8.24445 21.6108C8.35312 21.6143 8.42673 21.5581 8.48281 21.4739C8.57395 21.3441 8.65808 21.2143 8.74922 21.0844C8.80881 21.0002 8.83335 20.916 8.71417 20.8774C8.58797 20.8388 8.48281 20.6212 8.33208 20.7861C8.19888 20.9335 8.09723 21.1125 8.0096 21.2915C7.93599 21.4423 8.07269 21.6108 8.24095 21.6108H8.24445Z" fill="#FDA310"/>
<path d="M26.5246 7.90412C26.5386 8.34275 26.3598 8.69015 26.0093 8.94631C25.8831 9.03755 25.8235 9.13229 25.8235 9.2902C25.827 12.6835 25.8235 16.0768 25.8235 19.47C25.8235 19.635 25.8726 19.7508 26.0163 19.8385C26.2617 19.9929 26.5 20.1578 26.7349 20.3298C27.0118 20.5298 27.0784 20.8632 26.9031 21.1158C26.7279 21.372 26.4019 21.4316 26.1109 21.2456C25.8796 21.1018 25.6518 20.9509 25.4379 20.786C25.2767 20.6596 25.154 20.6737 24.9963 20.793C24.7789 20.9579 24.5511 21.1053 24.3197 21.2492C24.0253 21.4316 23.7098 21.372 23.531 21.1123C23.3593 20.8561 23.4084 20.5544 23.6853 20.3473C23.9517 20.1473 24.2321 19.9613 24.5125 19.7824C24.6457 19.6981 24.7018 19.5964 24.6983 19.4385C24.6983 16.0627 24.6983 12.687 24.6983 9.31126C24.6983 9.17089 24.6668 9.06562 24.5406 8.97439C24.141 8.68664 23.9447 8.29011 23.9867 7.79183C24.0008 7.63743 23.8956 7.59181 23.8115 7.52864C23.0193 6.9321 22.2306 6.32854 21.4314 5.74252C20.9687 5.40565 20.7198 4.97403 20.7514 4.39854C20.7654 4.15642 20.6777 4.11431 20.4569 4.18098C19.7348 4.40556 19.0127 4.61962 18.2871 4.82665C17.4213 5.07229 16.6642 4.55996 16.5625 3.67216C16.4924 3.07211 16.906 2.50364 17.565 2.30011C18.3713 2.05448 19.1775 1.81586 19.9872 1.57724C21.4945 1.12808 22.9982 0.678917 24.5055 0.233264C25.1855 0.0332459 25.827 0.282391 26.1285 0.85788C26.507 1.58426 26.16 2.46153 25.3608 2.71769C24.3828 3.03 23.3943 3.30722 22.4129 3.60549C21.7819 3.79849 21.9046 3.6862 21.873 4.3038C21.859 4.58102 21.9607 4.75296 22.1815 4.91438C22.9632 5.48285 23.7309 6.06887 24.4985 6.65488C24.6317 6.75665 24.7404 6.74261 24.8841 6.7005C25.7219 6.45487 26.5211 7.04439 26.5246 7.90061V7.90412ZM17.9156 3.77393C17.9681 3.75989 18.0347 3.74585 18.1013 3.7248C20.3377 3.05807 22.5741 2.39486 24.8105 1.72462C24.9647 1.67901 25.2171 1.66497 25.133 1.41231C25.0523 1.17019 24.8385 1.29652 24.6808 1.34564C22.5881 1.96675 20.492 2.59137 18.3993 3.21598C18.2065 3.27213 18.0102 3.32827 17.8209 3.39495C17.7228 3.43004 17.6562 3.50373 17.6842 3.61953C17.7123 3.7248 17.7824 3.78095 17.9121 3.77744L17.9156 3.77393Z" fill="#FDA310"/>
<path d="M12.6015 18.4278C10.0847 18.4278 8.07262 16.582 7.82375 14.1677C7.57487 11.7394 9.30999 9.37081 11.9179 9.01991C12.7802 8.90411 13.6145 9.03043 14.4137 9.37432C14.7853 9.53574 14.929 9.83752 14.7993 10.1498C14.6696 10.4586 14.3506 10.5534 13.972 10.399C11.655 9.45854 9.23638 10.8692 8.92792 13.3396C8.69657 15.1889 10.1092 17.0206 11.9635 17.2803C13.9615 17.561 15.7212 16.2977 16.0787 14.3046C16.1663 13.8203 16.1453 13.3255 16.0261 12.8378C16.0051 12.7536 15.9771 12.6694 15.9595 12.5816C15.8894 12.2307 16.0367 11.9535 16.3346 11.8693C16.6431 11.7816 16.92 11.957 17.0322 12.3079C17.905 14.9994 16.0612 17.9681 13.271 18.3751C13.0186 18.4137 12.7662 18.4278 12.5945 18.4242L12.6015 18.4278Z" fill="#FDA310"/>
<path d="M15.6616 10.4133C15.9701 10.4133 16.2224 10.6625 16.2154 10.9643C16.2084 11.259 15.9701 11.5047 15.6791 11.5117C15.3777 11.5187 15.1218 11.2731 15.1148 10.9678C15.1078 10.6625 15.3531 10.4133 15.6651 10.4133H15.6616Z" fill="#FDA310"/>
</svg>
