<svg width="27" height="27" viewBox="0 0 27 27" fill="none" xmlns="http://www.w3.org/2000/svg">
<path d="M26.8846 3.0736C26.7536 3.26435 26.563 3.39151 26.3804 3.52662C24.8204 4.6393 23.2643 5.75197 21.7083 6.86862C21.5971 6.94809 21.486 7.03949 21.3907 7.13884C19.3504 9.18139 17.314 11.2279 15.2736 13.2705C15.1387 13.4056 15.0394 13.5486 15.0116 13.7394C14.9521 14.105 15.2022 14.4229 15.5714 14.4467C15.7619 14.4586 15.9604 14.4388 16.1469 14.4706C17.2544 14.6613 17.7546 15.921 17.1155 16.8787C16.917 17.1767 16.6511 17.3993 16.3494 17.586C15.9326 17.8443 15.5158 18.1106 15.0513 18.2695C14.0431 18.6192 13.5945 19.3663 13.4675 20.3797C13.3444 21.3373 13.1499 22.2911 12.6021 23.1097C11.2684 25.1085 9.47016 26.3364 6.98522 26.2848C5.9055 26.2609 4.90915 25.8953 4.00012 25.3231C2.44803 24.3455 1.21747 23.062 0.498979 21.3532C-0.362413 19.3147 -0.0885141 17.3953 1.16586 15.5872C2.30115 13.946 3.92073 13.1393 5.83405 12.8214C6.03253 12.7896 6.231 12.7578 6.42551 12.7102C7.12018 12.5353 7.62829 12.1538 7.90615 11.4624C8.20784 10.7073 8.5651 9.97615 9.14862 9.38008C10.3832 8.12832 12.4433 7.92168 13.8922 8.91912C14.051 9.02641 14.2138 9.13767 14.3527 9.26484C14.5115 9.41187 14.6187 9.38803 14.7655 9.23702C15.5991 8.38662 16.4407 7.54814 17.2822 6.70569C17.5363 6.45136 17.7705 6.17319 18.0444 5.94669C18.9256 5.2314 19.4496 4.32536 19.7354 3.22461C19.9736 2.29473 20.0252 2.31063 20.966 2.20334C21.2174 2.17419 21.3325 2.03511 21.3113 1.78608C21.2994 1.63905 21.2835 1.48804 21.351 1.34896C21.4661 1.11848 21.6606 1.02311 21.9107 1.04695C22.1568 1.07079 22.3275 1.24564 22.3871 1.53176C22.4532 1.84436 22.6424 1.97418 22.9547 1.92119C22.9904 1.91722 23.0222 1.9053 23.0579 1.90132C23.3067 1.86158 23.4125 1.71323 23.3755 1.45625C23.3239 1.09066 23.5065 0.800573 23.832 0.744939C24.1337 0.693279 24.3996 0.907865 24.4711 1.26551C24.483 1.33307 24.487 1.40459 24.4949 1.47215C24.5147 1.63508 24.5981 1.69469 24.7648 1.66687C25.0149 1.62316 25.265 1.59534 25.5151 1.55957C25.7016 1.53176 25.8684 1.57944 25.9993 1.71058C26.301 2.01259 26.6305 2.29076 26.8846 2.64046V3.06168V3.0736ZM7.26309 25.1959C9.35107 25.0449 10.8555 23.9998 11.8479 22.1758C12.1893 21.544 12.2846 20.8327 12.3878 20.1293C12.5823 18.814 13.1976 17.8205 14.4877 17.3198C14.9759 17.1291 15.4324 16.8628 15.8691 16.5727C15.9961 16.4893 16.1112 16.4018 16.1906 16.2667C16.397 15.9091 16.2501 15.5991 15.8452 15.5475C15.75 15.5355 15.6547 15.5355 15.5555 15.5355C14.9164 15.5435 14.4519 15.2415 14.1264 14.7169C14.0153 14.5341 13.9597 14.5779 13.8446 14.6931C13.4913 15.0547 13.134 15.4163 12.7688 15.77C12.5069 16.0243 12.2052 16.0521 11.9511 15.8097C11.443 15.3289 10.9508 14.8322 10.4705 14.3235C10.2402 14.0811 10.2561 13.8268 10.4625 13.5645C10.5261 13.4811 10.6015 13.4095 10.6769 13.334C11.6455 12.3605 12.614 11.3869 13.5866 10.4172C13.6779 10.3219 13.7851 10.2543 13.6302 10.1033C12.6458 9.16152 10.8913 9.18139 9.93459 10.147C9.50191 10.5881 9.25183 11.1365 9.00969 11.6889C8.82709 12.1061 8.64846 12.5234 8.32693 12.8612C7.72752 13.497 6.95743 13.7751 6.11986 13.9023C4.63128 14.1248 3.30942 14.6573 2.33291 15.8733C1.07456 17.4311 0.709366 19.1239 1.55488 20.9837C2.29718 22.6169 3.48805 23.8409 5.08381 24.6555C5.7626 25.0012 6.48506 25.192 7.26706 25.188L7.26309 25.1959ZM20.3269 6.60634C20.3308 6.51892 20.2911 6.48315 20.2554 6.44739C20.1522 6.3401 20.045 6.23678 19.9418 6.12948C19.6362 5.82747 19.7036 5.84337 19.4298 6.12154C17.0004 8.56147 14.571 11.0054 12.1417 13.4453C11.6375 13.954 11.6415 13.946 12.1536 14.4586C12.2965 14.6017 12.3878 14.6096 12.5346 14.4586C13.1579 13.8189 13.793 13.195 14.4202 12.5631C16.3375 10.6358 18.2548 8.7085 20.1681 6.78119C20.2276 6.72158 20.2832 6.65403 20.3269 6.60634ZM25.2848 2.71993C24.8244 2.78749 24.3599 2.85902 23.8915 2.9226C22.9746 3.05373 22.0576 3.18487 21.1406 3.30806C20.9302 3.33588 20.7992 3.41535 20.7397 3.64186C20.6405 4.01143 20.5095 4.37702 20.3785 4.73864C20.3308 4.87375 20.3507 4.96912 20.4499 5.06847C20.6643 5.27511 20.8747 5.48175 21.0811 5.70031C21.1843 5.81157 21.2677 5.81952 21.3947 5.72812C22.7086 4.78235 24.0225 3.84453 25.3404 2.90273C25.388 2.87094 25.4674 2.84709 25.4516 2.77557C25.4317 2.70006 25.3523 2.72788 25.2848 2.71993Z" fill="#FDA310"/>
<path d="M6.42554 21.9255C6.235 21.9136 6.08416 21.8381 5.95317 21.7109C5.25056 21.0076 4.54397 20.3082 3.84533 19.5969C3.56747 19.3147 3.55953 18.9968 3.7977 18.7624C4.02794 18.5358 4.35344 18.5557 4.63131 18.8299C5.33789 19.5293 6.04049 20.2366 6.73914 20.94C6.91776 21.1188 7.0051 21.3294 6.90189 21.5798C6.81456 21.7944 6.63593 21.8937 6.42157 21.9255H6.42554Z" fill="#FDA310"/>
<path d="M10.6571 17.7411C10.6571 18.0709 10.2205 18.3332 9.85529 18.1385C9.84735 18.1345 9.83941 18.1305 9.83147 18.1265C9.23604 17.6139 8.6684 17.0695 8.17617 16.4615C7.93006 16.1555 8.15235 15.7144 8.54137 15.6429C8.73985 15.6071 8.90657 15.6826 9.04153 15.8138C9.52185 16.2867 9.99422 16.7595 10.4666 17.2404C10.5777 17.3556 10.6532 17.4947 10.6532 17.7411H10.6571Z" fill="#FDA310"/>
<path d="M9.16853 19.1199C9.1725 19.3504 9.0812 19.5133 8.8986 19.6166C8.71997 19.7199 8.52943 19.7199 8.3508 19.6087C8.27141 19.561 8.19599 19.4934 8.12851 19.4259C7.68789 18.9887 7.24727 18.5516 6.81459 18.1066C6.54863 17.8363 6.53672 17.4906 6.77092 17.2681C6.99719 17.0495 7.32269 17.0654 7.58865 17.3277C8.04911 17.7807 8.50561 18.2417 8.96211 18.6987C9.0812 18.8179 9.1725 18.957 9.16853 19.1199Z" fill="#FDA310"/>
<path d="M10.1132 21.5718C10.3991 21.5718 10.6491 21.8142 10.6571 22.1043C10.665 22.3983 10.407 22.6686 10.1132 22.6686C9.83538 22.6686 9.57339 22.4182 9.56545 22.1361C9.55354 21.8499 9.8195 21.5757 10.1132 21.5757V21.5718Z" fill="#FDA310"/>
<path d="M7.35053 22.8712C7.35053 22.5612 7.58473 22.3188 7.89039 22.3228C8.18413 22.3228 8.42231 22.5612 8.42627 22.8553C8.43024 23.1533 8.17619 23.4116 7.87848 23.4116C7.58473 23.4116 7.34656 23.1692 7.34656 22.8752L7.35053 22.8712Z" fill="#FDA310"/>
</svg>
