<svg width="390" height="844" viewBox="0 0 390 844" fill="none" xmlns="http://www.w3.org/2000/svg">
<g clip-path="url(#clip0_407_20499)">
<rect width="390" height="844" fill="white"/>
<path d="M378 148.504C357.882 143.899 352.965 111.321 339.39 90.17C314.051 50.6894 266.234 134.485 282.491 148.504C296.068 160.214 312.973 129.143 305.251 88.2068C286.324 -12.1303 183.65 10.2207 152.436 69.5878C121.222 128.955 63.5421 103.621 32.9584 58.4068C-6.47455 0.109822 -36.5497 50.3087 -71.2277 50.3087C-91.1914 50.3087 -92.9048 0.483105 -141 29.4893" stroke="#FDA310" stroke-width="3" stroke-linecap="round" stroke-linejoin="round"/>
<path d="M602 594.044C577.424 599.661 571.417 639.396 554.835 665.194C523.882 713.349 465.469 611.144 485.328 594.044C501.914 579.762 522.564 617.659 513.131 667.589C490.01 789.97 364.586 762.708 326.456 690.298C288.326 617.888 217.865 648.788 180.504 703.936C132.334 775.04 95.5944 713.813 53.2324 713.813C28.8452 713.813 26.7521 774.585 -32 739.206" stroke="#FDA310" stroke-width="3" stroke-linecap="round" stroke-linejoin="round"/>
</g>
<defs>
<clipPath id="clip0_407_20499">
<rect width="390" height="844" fill="white"/>
</clipPath>
</defs>
</svg>
