<svg width="25" height="27" viewBox="0 0 25 27" fill="none" xmlns="http://www.w3.org/2000/svg">
<path d="M9.26848 26.1754C8.64307 26.0596 8.00995 25.9669 7.41157 25.743C4.16874 24.5268 2.25392 22.2027 1.66326 18.7936C1.52814 18.0215 1.60149 17.2339 1.59377 16.454C1.58605 15.9521 1.58605 15.4464 1.59377 14.9445C1.59763 14.7398 1.53972 14.6356 1.33898 14.5507C0.466499 14.1916 0.00323682 13.3886 0.0843077 12.4118C0.149936 11.6049 0.806225 10.8868 1.6594 10.6783C1.8254 10.6358 1.9914 10.6397 2.16127 10.6397C4.47758 10.6397 6.79389 10.6552 9.11406 10.632C10.056 10.6243 10.9825 11.2767 11.1794 12.3076C11.357 13.2496 10.8436 14.18 9.9016 14.5738C9.74332 14.6395 9.68928 14.7244 9.68928 14.8904C9.697 15.9405 9.68155 16.9907 9.697 18.0369C9.70858 19.1681 10.4344 19.9596 11.5462 20.087C12.5075 20.1951 13.4919 19.4422 13.6424 18.4809C13.6579 18.3805 13.6733 18.2801 13.6849 18.1798C13.7197 17.8786 13.6926 17.6624 13.3683 17.4578C12.3955 16.8478 12.4573 15.4348 13.4533 14.8672C13.6347 14.763 13.7042 14.6549 13.6926 14.4541C13.6772 14.1762 13.6849 13.902 13.6926 13.6241C13.6926 13.4928 13.6579 13.4117 13.5382 13.3422C12.3801 12.6705 12.3801 11.2652 13.5382 10.5857C13.6463 10.5239 13.7004 10.4505 13.6926 10.327C13.6849 10.1919 13.681 10.0567 13.6926 9.92547C13.7235 9.49693 13.6656 9.18807 13.241 8.88307C12.3646 8.2499 12.5152 6.92566 13.4649 6.39288C13.6386 6.29636 13.6888 6.18826 13.6926 5.99908C13.7042 5.30415 13.6386 4.60921 13.7853 3.91813C14.2138 1.89896 16.0746 0.358518 18.1438 0.36624C19.5375 0.370101 20.9272 0.478202 22.317 0.555417C22.8382 0.582442 23.3555 0.597885 23.8767 0.62105C24.0427 0.628771 24.2125 0.636493 24.3785 0.667379C24.6411 0.713708 24.8032 0.891303 24.8032 1.15383C24.8109 1.84105 24.8109 2.53212 24.8032 3.21934C24.8032 3.50117 24.6179 3.69035 24.3322 3.71738C23.564 3.79073 22.7957 3.8525 22.0275 3.922C21.101 4.00307 20.1744 4.07257 19.2479 4.16522C18.9159 4.19611 18.7731 4.36212 18.7692 4.69801C18.7615 5.47016 18.7692 6.24231 18.7654 7.01446C18.7654 7.17275 18.8348 7.22294 18.9815 7.21522C19.0896 7.21136 19.2016 7.21136 19.3097 7.21908C19.5838 7.24611 19.7691 7.45073 19.7729 7.72098C19.7768 8.00281 19.5915 8.21902 19.3097 8.25376C19.2865 8.25376 19.2595 8.25376 19.2325 8.25376C18.9211 8.26663 18.7654 8.42492 18.7654 8.72864C18.7654 9.54326 18.7731 10.3579 18.7615 11.1725C18.7615 11.381 18.8271 11.4659 19.0356 11.4427C19.1282 11.4312 19.2209 11.4389 19.3135 11.4466C19.5838 11.4736 19.7691 11.6821 19.7729 11.9562C19.7729 12.2265 19.5954 12.4427 19.329 12.4813C19.3135 12.4813 19.2942 12.4813 19.2788 12.4813C18.9391 12.507 18.7692 12.6936 18.7692 13.0411C18.7692 13.821 18.7769 14.6047 18.7654 15.3846C18.7654 15.6008 18.8155 15.7012 19.0472 15.6741C19.136 15.6626 19.2325 15.6703 19.3251 15.678C19.5954 15.7089 19.7768 15.9212 19.7768 16.1915C19.7768 16.4617 19.5915 16.6741 19.3251 16.7088C19.3174 16.7088 19.3097 16.7088 19.302 16.7088C19.1398 16.732 18.9275 16.6355 18.8194 16.7629C18.6997 16.9019 18.7731 17.1181 18.7769 17.2995C18.8348 19.4808 18.1824 21.4228 16.7849 23.0945C15.3179 24.8434 13.4417 25.8588 11.1717 26.1368C11.1292 26.1406 11.0906 26.1561 11.052 26.1677H9.28778L9.26848 26.1754ZM5.65889 14.7051C4.88679 14.7051 4.11469 14.7051 3.34258 14.7051C2.57048 14.7051 2.5975 14.7051 2.63225 15.4695C2.63997 15.6201 2.69016 15.6819 2.84072 15.678C3.09937 15.6703 3.36189 15.6741 3.62054 15.678C3.94482 15.6857 4.18032 15.9135 4.1726 16.2069C4.16873 16.4926 3.94096 16.7088 3.62826 16.7204C3.36961 16.7281 3.10709 16.7281 2.84844 16.7204C2.7056 16.7204 2.63611 16.7629 2.63225 16.9212C2.62453 17.6856 2.65155 18.4462 2.81369 19.199C3.57422 22.7586 6.88268 25.3762 10.6467 25.1137C13.0132 24.9477 14.8894 23.8898 16.2908 21.9903C17.3987 20.4885 17.7771 18.7666 17.7192 16.9289C17.7153 16.7551 17.6419 16.7165 17.4875 16.7204C16.9432 16.7243 16.395 16.7243 15.8507 16.7204C15.7155 16.7204 15.6383 16.7667 15.5766 16.8903C15.426 17.1914 15.1982 17.4231 14.8933 17.5698C14.7543 17.6354 14.7234 17.7319 14.7272 17.8709C14.7272 18.1566 14.735 18.4384 14.6771 18.7241C14.3644 20.2646 12.9205 21.3147 11.3339 21.1487C9.83211 20.9904 8.65466 19.6739 8.6508 18.1412C8.6508 17.7551 8.64307 17.369 8.6508 16.9829C8.65466 16.7899 8.60061 16.7088 8.396 16.7204C8.12963 16.7358 7.85939 16.732 7.58915 16.7204C7.29189 16.7088 7.08729 16.4849 7.09115 16.1953C7.09115 15.9174 7.29189 15.705 7.57757 15.6819C7.70111 15.6741 7.82851 15.678 7.9559 15.678C8.65852 15.678 8.6508 15.678 8.65466 14.9792C8.65466 14.7707 8.59289 14.7012 8.38442 14.7051C7.4772 14.7128 6.56998 14.7089 5.66276 14.7089L5.65889 14.7051ZM16.6691 7.21136C16.9277 7.21136 17.1903 7.19978 17.4489 7.21136C17.6612 7.22294 17.723 7.14187 17.7192 6.93725C17.7076 6.18054 17.7153 5.42769 17.7192 4.67098C17.7192 3.77529 18.3407 3.13054 19.2325 3.08035C19.6687 3.05719 20.1011 3.01086 20.5373 2.97997C20.6802 2.96839 20.7458 2.90662 20.7458 2.75991C20.7419 2.43174 20.7381 2.10358 20.7458 1.77928C20.7535 1.60554 20.6802 1.53605 20.5142 1.52833C20.186 1.51674 19.8617 1.49358 19.5336 1.482C18.9738 1.46269 18.4179 1.38548 17.8543 1.44339C16.3641 1.59782 15.121 2.71744 14.8199 4.19225C14.6886 4.84086 14.7388 5.49718 14.7311 6.14965C14.7311 6.27706 14.816 6.31952 14.9087 6.36585C15.2021 6.51642 15.4299 6.73649 15.5727 7.0299C15.6422 7.17275 15.7387 7.21908 15.8931 7.21522C16.1518 7.2075 16.4143 7.21522 16.673 7.21522L16.6691 7.21136ZM5.65503 11.6821C4.5046 11.6821 3.35803 11.6783 2.20759 11.6821C1.45479 11.686 0.979948 12.2921 1.18456 12.9716C1.31581 13.4117 1.70959 13.6588 2.29638 13.6588C4.52776 13.6588 6.75914 13.6588 8.99052 13.6588C9.13336 13.6588 9.2762 13.6434 9.41518 13.6125C9.91319 13.5005 10.2413 12.9755 10.1255 12.4813C10.0097 11.9755 9.64295 11.6898 9.07931 11.686C7.94046 11.6821 6.79775 11.686 5.65889 11.686L5.65503 11.6821ZM17.7153 9.86756C17.7153 9.41585 17.7114 8.96028 17.7153 8.50857C17.7153 8.33098 17.6767 8.2499 17.4759 8.25376C16.9316 8.26535 16.3834 8.26148 15.8391 8.25376C15.7155 8.25376 15.6383 8.28851 15.5804 8.40433C15.4299 8.71705 15.1944 8.95256 14.8817 9.10699C14.7543 9.16876 14.7195 9.2537 14.7195 9.38496C14.7272 9.69383 14.7272 10.0065 14.7195 10.3154C14.7195 10.4505 14.7697 10.5316 14.8894 10.5895C15.1905 10.7401 15.4221 10.9679 15.5727 11.2729C15.6383 11.408 15.7348 11.4427 15.8738 11.4427C16.4027 11.4389 16.9316 11.4312 17.4605 11.4427C17.669 11.4466 17.7153 11.3617 17.7114 11.1725C17.6998 10.7362 17.7114 10.3 17.7114 9.8637L17.7153 9.86756ZM17.7153 14.0835C17.7153 13.6318 17.7114 13.1762 17.7153 12.7245C17.7153 12.5546 17.6651 12.4852 17.4837 12.4852C16.9393 12.4929 16.3911 12.4929 15.8468 12.4852C15.7117 12.4852 15.6345 12.5315 15.5727 12.655C15.4221 12.9562 15.1905 13.1878 14.8894 13.3384C14.7659 13.4002 14.7195 13.4774 14.7195 13.6125C14.7272 13.9214 14.7272 14.2341 14.7195 14.5429C14.7157 14.6896 14.7774 14.7707 14.9048 14.8364C15.1982 14.9831 15.4221 15.2108 15.5688 15.5043C15.6345 15.6355 15.7233 15.6819 15.8661 15.6819C16.4027 15.678 16.9393 15.6741 17.4798 15.6819C17.6535 15.6819 17.7153 15.6239 17.7153 15.4464C17.7076 14.9946 17.7153 14.5391 17.7153 14.0874V14.0835ZM21.7843 2.23098C21.7843 2.38155 21.7843 2.53212 21.7843 2.68269C21.7804 2.80624 21.8152 2.86415 21.958 2.85257C22.4907 2.80624 23.0274 2.76763 23.564 2.72902C23.7107 2.71744 23.7686 2.64409 23.7647 2.50124C23.7609 2.31592 23.7531 2.13061 23.7647 1.94915C23.7763 1.76769 23.7068 1.68662 23.5292 1.6789C23.1509 1.65959 22.7764 1.64029 22.3981 1.61326C21.7843 1.56307 21.7843 1.55921 21.7843 2.18466C21.7843 2.2001 21.7843 2.2194 21.7843 2.23485V2.23098ZM14.2022 8.18813C14.4686 8.18813 14.6771 7.99509 14.6809 7.74028C14.6848 7.48933 14.4493 7.24997 14.1984 7.25383C13.959 7.25769 13.7351 7.48547 13.7312 7.7287C13.7312 7.98351 13.9358 8.18427 14.1984 8.18813H14.2022ZM14.2022 15.7243C13.9629 15.7282 13.7351 15.9598 13.7351 16.1992C13.7351 16.4501 13.9783 16.6857 14.2292 16.6702C14.4763 16.6586 14.6925 16.4231 14.6848 16.1838C14.6771 15.9405 14.4416 15.7166 14.2022 15.7205V15.7243ZM14.1984 12.4195C14.4647 12.4234 14.6732 12.2342 14.6809 11.9794C14.6886 11.7439 14.4647 11.5007 14.2292 11.4891C13.9822 11.4775 13.739 11.713 13.7312 11.9601C13.7274 12.211 13.932 12.4157 14.1945 12.4234L14.1984 12.4195Z" fill="#FDA310"/>
</svg>
