<svg width="213" height="54" viewBox="0 0 213 54" fill="none" xmlns="http://www.w3.org/2000/svg">
<path d="M4.31892 33.0758C5.76717 33.0758 7.21541 33.0758 8.66366 33.0758C10.9942 33.0758 13.3247 33.0814 15.6496 33.0758C16.7539 33.0758 17.4086 32.3757 17.3642 31.3032C17.3365 30.5475 16.8759 29.9751 16.1379 29.8084C15.8716 29.7473 15.5941 29.7362 15.3223 29.7362C10.8998 29.7362 6.48296 29.7362 2.06055 29.7362C1.87743 29.7362 1.69432 29.7306 1.51121 29.7528C0.512421 29.864 -0.036913 30.4974 0.00192879 31.4977C0.0352218 32.4423 0.640045 33.0536 1.62219 33.0758C2.5211 33.0981 3.42001 33.0814 4.31892 33.0814V33.0758Z" fill="black"/>
<path d="M42.3617 1.11273C42.3617 0.834889 42.2785 0.662626 41.9733 0.623728C41.2131 0.518148 40.4474 0.40701 39.6872 0.290316C39.3376 0.234748 39.1767 0.345885 39.1989 0.723752C39.2211 1.12385 39.1989 1.5295 39.1989 1.93515C39.1989 2.07963 39.1989 2.22966 39.1989 2.37414C39.21 3.80226 39.0879 3.48552 40.3919 3.40216C40.8857 3.36882 41.374 3.26324 41.8623 3.21879C42.1897 3.191 42.3673 3.06875 42.3562 2.71311C42.3395 2.17965 42.3451 1.64619 42.3562 1.11273H42.3617Z" fill="black"/>
<path d="M22.68 13.16L22.6967 23.4736V27.5023H22.7022V27.7357C22.7022 31.8144 22.7133 35.8932 22.6967 39.9664C22.6911 41.8168 21.5148 43.2505 19.7391 43.6505C17.5418 44.1451 15.3445 42.5058 15.2723 40.2609C15.2168 38.6105 15.2501 36.9545 15.2446 35.3041C15.2446 34.5706 15.2335 34.5595 14.5121 34.5595C10.7001 34.5595 6.88249 34.5706 3.07044 34.5484C2.51556 34.5484 2.3269 34.7096 2.34355 35.2652C2.41013 37.0268 2.29916 38.7883 2.42123 40.5498C2.61544 43.306 3.63642 45.7233 5.4065 47.8071C8.35848 51.2746 12.1261 53.1639 16.6928 53.2417C22.8909 53.3473 28.3343 49.113 29.8991 43.106C30.2209 41.8724 30.343 40.6109 30.3485 39.344C30.3541 35.3986 30.3485 31.4532 30.3485 27.5079C30.3485 26.6021 30.3485 25.7019 30.3485 24.7961C30.3485 19.8005 30.2875 14.8049 30.3707 9.80923C30.4151 7.0308 31.7912 4.92474 34.2271 3.55775C35.1316 3.05208 36.1248 2.88537 37.1458 2.89649C37.5731 2.89649 37.734 2.75201 37.7285 2.32413C37.6952 0.579273 37.9393 0.846003 36.2969 0.846003C33.4503 0.846003 30.7203 1.36835 28.2178 2.75201C24.9828 4.87473 22.8132 8.49781 22.7022 12.6377" fill="black"/>
<path d="M20.5992 11.3818H21.5703V16.2997H20.5992C19.8279 16.2997 19.2064 15.6717 19.2064 14.9049V12.7822C19.2064 12.0097 19.8335 11.3874 20.5992 11.3874V11.3818Z" fill="#FDA310"/>
<path d="M20.5992 23.9515H21.5703V28.8693H20.5992C19.8279 28.8693 19.2064 28.2414 19.2064 27.4745V25.3518C19.2064 24.5794 19.8335 23.957 20.5992 23.957V23.9515Z" fill="#FDA310"/>
<path d="M20.5992 17.6666H21.5703V22.5845H20.5992C19.8279 22.5845 19.2064 21.9565 19.2064 21.1897V19.067C19.2064 18.2946 19.8335 17.6722 20.5992 17.6722V17.6666Z" fill="#FDA310"/>
<path d="M59.4466 32.4715L59.4133 16.64L51.5728 29.832H50.1468L42.3063 16.7289V32.4659H39.3321V10.7386H41.8735L50.9236 26.0144L59.8517 10.7386H62.393L62.4263 32.4715H59.4466Z" fill="black"/>
<path d="M83.8171 15.8342V32.2881H80.9983V29.8042C79.7886 31.5102 77.7411 32.4715 75.4162 32.4715C71.1713 32.4715 68.3469 30.1432 68.3469 25.3031V15.8342H71.3211V24.9586C71.3211 28.1872 72.9358 29.8042 75.7546 29.8042C78.8564 29.8042 80.8374 27.8815 80.8374 24.3418V15.8342H83.8171Z" fill="black"/>
<path d="M87.4127 30.5488L88.6557 28.1871C90.0484 29.1818 92.2791 29.8931 94.4209 29.8931C97.1787 29.8931 98.3273 29.054 98.3273 27.6592C98.3273 23.9639 87.9399 27.1647 87.9399 20.6131C87.9399 17.6624 90.5756 15.6786 94.7927 15.6786C96.929 15.6786 99.3483 16.2399 100.774 17.1679L99.5036 19.5296C98.0166 18.5682 96.3741 18.2237 94.7594 18.2237C92.157 18.2237 90.8863 19.185 90.8863 20.4909C90.8863 24.3696 101.301 21.2022 101.301 27.5981C101.301 30.5766 98.5714 32.4715 94.2045 32.4715C91.4745 32.4715 88.7777 31.6324 87.4183 30.5488H87.4127Z" fill="black"/>
<path d="M104.609 10.9275C104.609 9.83838 105.48 8.9715 106.623 8.9715C107.766 8.9715 108.637 9.81059 108.637 10.8664C108.637 11.9833 107.799 12.8558 106.623 12.8558C105.446 12.8558 104.609 12.0167 104.609 10.9331V10.9275ZM105.136 16.0176H108.11V32.4715H105.136V16.0176Z" fill="black"/>
<path d="M112.155 24.0584C112.155 19.1517 115.784 15.6786 120.833 15.6786C123.78 15.6786 126.227 16.89 127.531 19.185L125.267 20.6465C124.213 19.035 122.603 18.2848 120.806 18.2848C117.582 18.2848 115.162 20.552 115.162 24.0584C115.162 27.5648 117.582 29.8653 120.806 29.8653C122.603 29.8653 124.218 29.1207 125.267 27.5037L127.531 28.9318C126.227 31.2268 123.78 32.4715 120.833 32.4715C115.778 32.4715 112.155 28.9651 112.155 24.0584Z" fill="black"/>
<path d="M155.297 32.4715L150.614 25.7977C150.181 25.8255 149.715 25.8588 149.249 25.8588H143.883V32.4715H140.781V10.7386H149.243C154.887 10.7386 158.294 13.5948 158.294 18.3126C158.294 21.6634 156.557 24.0862 153.522 25.1753L158.665 32.4715H155.286H155.297ZM155.203 18.3126C155.203 15.2063 153.128 13.4392 149.16 13.4392H143.889V23.2193H149.16C153.128 23.2193 155.203 21.4189 155.203 18.3126Z" fill="black"/>
<path d="M177.681 25.0531H164.353C164.725 27.9426 167.05 29.8653 170.307 29.8653C172.227 29.8653 173.841 29.2152 175.051 27.876L176.693 29.7986C175.206 31.5379 172.942 32.4659 170.212 32.4659C164.913 32.4659 161.379 28.9596 161.379 24.0528C161.379 19.1461 164.88 15.6731 169.624 15.6731C174.368 15.6731 177.748 19.085 177.748 24.1473C177.748 24.3974 177.714 24.7697 177.687 25.0475L177.681 25.0531ZM174.89 22.9081C174.579 20.1464 172.504 18.1903 169.619 18.1903C166.733 18.1903 164.658 20.113 164.347 22.9081H174.89Z" fill="black"/>
<path d="M197.463 23.0026V32.4715H194.489V23.3471C194.489 20.1186 192.879 18.5349 190.055 18.5349C186.892 18.5349 184.845 20.4298 184.845 23.9973V32.4715H181.871V16.0176H184.723V18.5015C185.932 16.8234 188.041 15.862 190.643 15.862C194.644 15.862 197.463 18.157 197.463 23.0026Z" fill="black"/>
<path d="M212.223 31.3212C211.324 32.0992 209.959 32.4715 208.627 32.4715C205.309 32.4715 203.417 30.6377 203.417 27.3203V18.2848H200.626V15.8342H203.417V12.2334H206.391V15.8342H211.102V18.2848H206.391V27.1925C206.391 28.9596 207.323 29.9542 208.965 29.9542C209.837 29.9542 210.669 29.6764 211.29 29.1763L212.223 31.3157V31.3212Z" fill="black"/>
<path d="M106.623 14.3894C108.131 14.3894 109.353 13.1654 109.353 11.6555C109.353 10.1455 108.131 8.92149 106.623 8.92149C105.115 8.92149 103.893 10.1455 103.893 11.6555C103.893 13.1654 105.115 14.3894 106.623 14.3894Z" fill="#FDA310"/>
<path d="M48.5009 53.2417L47.3336 50.5933H41.6946L40.5274 53.2417H38.9661L43.7714 42.6481H45.2721L50.0925 53.2417H48.5009ZM42.2252 49.3826H46.8031L44.5141 44.1917L42.2252 49.3826Z" fill="black"/>
<path d="M87.9821 42.0125H89.4373V53.2417H88.0427V51.9705C87.3909 52.8785 86.3601 53.3325 85.1777 53.3325C82.8281 53.3325 81.1152 51.6829 81.1152 49.2313C81.1152 46.7796 82.8281 45.1452 85.1777 45.1452C86.3146 45.1452 87.3151 45.5689 87.9821 46.4315V42.0125ZM85.299 52.0613C86.83 52.0613 87.9972 50.9414 87.9972 49.2313C87.9972 47.5212 86.83 46.4164 85.299 46.4164C83.7528 46.4164 82.5856 47.5212 82.5856 49.2313C82.5856 50.9414 83.7528 52.0613 85.299 52.0613Z" fill="black"/>
<path d="M132.71 45.1452C134.665 45.1452 135.999 46.2651 135.999 48.6259V53.2417H134.544V48.7924C134.544 47.2185 133.786 46.4467 132.467 46.4467C131.012 46.4467 130.057 47.3698 130.057 49.1102V53.2417H128.602V48.7924C128.602 47.2185 127.844 46.4467 126.525 46.4467C125.07 46.4467 124.115 47.3698 124.115 49.1102V53.2417H122.66V45.2208H124.054V46.4164C124.63 45.5992 125.615 45.1452 126.828 45.1452C128.056 45.1452 129.087 45.6294 129.617 46.6283C130.224 45.7202 131.345 45.1452 132.71 45.1452Z" fill="black"/>
<path d="M169.873 43.6772C169.312 43.6772 168.888 43.2686 168.888 42.7389C168.888 42.2092 169.312 41.7855 169.873 41.7855C170.434 41.7855 170.858 42.1941 170.858 42.7086C170.858 43.2534 170.449 43.6772 169.873 43.6772ZM169.146 53.2417V45.2208H170.601V53.2417H169.146Z" fill="black"/>
<path d="M208.138 45.1452C210.093 45.1452 211.473 46.2651 211.473 48.6259V53.2417H210.018V48.7924C210.018 47.2185 209.229 46.4467 207.85 46.4467C206.304 46.4467 205.303 47.3698 205.303 49.1102V53.2417H203.848V45.2208H205.243V46.4315C205.834 45.6143 206.865 45.1452 208.138 45.1452Z" fill="black"/>
</svg>
