<svg width="881" height="221" viewBox="0 0 881 221" fill="none" xmlns="http://www.w3.org/2000/svg">
<g clip-path="url(#clip0_844_5149)">
<path d="M246.557 158.278L246.419 92.5056L213.899 147.312H207.984L175.465 92.875V158.255H163.129V67.9883H173.669L211.207 131.452L248.237 67.9883H258.778L258.916 158.278H246.58H246.557Z" fill="white"/>
<path d="M347.638 89.1581V157.516H335.947V147.196C330.929 154.284 322.437 158.278 312.794 158.278C295.187 158.278 283.473 148.605 283.473 128.497V89.1581H295.809V127.065C295.809 140.478 302.506 147.196 314.198 147.196C327.063 147.196 335.279 139.209 335.279 124.503V89.1581H347.615H347.638Z" fill="white"/>
<path d="M362.552 150.29L367.707 140.478C373.484 144.611 382.735 147.566 391.619 147.566C403.058 147.566 407.822 144.08 407.822 138.285C407.822 122.933 364.738 136.23 364.738 109.012C364.738 96.7534 375.67 88.5117 393.161 88.5117C402.022 88.5117 412.056 90.8434 417.971 94.6988L412.701 104.51C406.533 100.516 399.72 99.0851 393.023 99.0851C382.229 99.0851 376.959 103.079 376.959 108.504C376.959 124.618 420.157 111.459 420.157 138.031C420.157 150.405 408.834 158.278 390.722 158.278C379.398 158.278 368.213 154.792 362.575 150.29H362.552Z" fill="white"/>
<path d="M433.874 68.7732C433.874 64.2483 437.488 60.6469 442.229 60.6469C446.97 60.6469 450.583 64.1329 450.583 68.5192C450.583 73.1595 447.108 76.784 442.229 76.784C437.349 76.784 433.874 73.298 433.874 68.7963V68.7732ZM436.061 89.9199H448.397V158.278H436.061V89.9199Z" fill="white"/>
<path d="M465.174 123.325C465.174 102.94 480.226 88.5117 501.169 88.5117C513.39 88.5117 523.54 93.5445 528.948 103.079L519.558 109.151C515.185 102.456 508.511 99.339 501.054 99.339C487.683 99.339 477.648 108.758 477.648 123.325C477.648 137.893 487.683 147.45 501.054 147.45C508.511 147.45 515.208 144.357 519.558 137.639L528.948 143.572C523.54 153.106 513.39 158.278 501.169 158.278C480.203 158.278 465.174 143.71 465.174 123.325Z" fill="white"/>
<path d="M644.114 158.278L624.69 130.551C622.895 130.667 620.961 130.805 619.028 130.805H596.773V158.278H583.908V67.9883H619.005C642.411 67.9883 656.542 79.8545 656.542 99.4545C656.542 113.375 649.339 123.441 636.75 127.966L658.084 158.278H644.068H644.114ZM643.723 99.4545C643.723 86.5494 635.115 79.2081 618.66 79.2081H596.796V119.839H618.66C635.115 119.839 643.723 112.36 643.723 99.4545Z" fill="white"/>
<path d="M736.956 127.458H681.674C683.216 139.463 692.86 147.45 706.369 147.45C714.332 147.45 721.03 144.749 726.047 139.185L732.859 147.173C726.691 154.399 717.301 158.255 705.978 158.255C683.999 158.255 669.338 143.687 669.338 123.302C669.338 102.917 683.861 88.4886 703.538 88.4886C723.216 88.4886 737.232 102.663 737.232 123.695C737.232 124.734 737.094 126.28 736.979 127.435L736.956 127.458ZM681.674 118.547H725.379C724.091 107.073 715.483 98.9466 703.515 98.9466C691.548 98.9466 682.94 106.934 681.651 118.547H681.674Z" fill="white"/>
<path d="M819.003 118.939V158.278H806.667V120.37C806.667 106.957 799.993 100.378 788.279 100.378C775.16 100.378 766.668 108.25 766.668 123.071V158.278H754.332V89.92H766.161V100.239C771.179 93.2674 779.924 89.2736 790.718 89.2736C807.312 89.2736 819.003 98.8081 819.003 118.939Z" fill="white"/>
<path d="M880.223 153.499C876.494 156.731 870.833 158.278 865.309 158.278C851.546 158.278 843.698 150.659 843.698 136.877V99.3391H832.122V89.1581H843.698V74.1984H856.034V89.1581H875.574V99.3391H856.034V136.346C856.034 143.687 859.901 147.82 866.713 147.82C870.326 147.82 873.779 146.665 876.356 144.588L880.223 153.476V153.499Z" fill="white"/>
<path d="M442.229 83.1558C448.482 83.1558 453.552 78.0705 453.552 71.7975C453.552 65.5244 448.482 60.4391 442.229 60.4391C435.975 60.4391 430.906 65.5244 430.906 71.7975C430.906 78.0705 435.975 83.1558 442.229 83.1558Z" fill="#FDA310"/>
<path d="M17.9052 136.277C23.912 136.277 29.9189 136.277 35.9257 136.277C45.5919 136.277 55.2581 136.3 64.9013 136.277C69.4813 136.277 72.197 133.368 72.0129 128.913C71.8978 125.773 69.9876 123.395 66.9266 122.703C65.8219 122.449 64.6712 122.403 63.5435 122.403C45.2007 122.403 26.8809 122.403 8.53818 122.403C7.77869 122.403 7.0192 122.38 6.25971 122.472C2.11706 122.934 -0.161404 125.565 -0.000300773 129.721C0.137788 133.646 2.6464 136.185 6.72001 136.277C10.4484 136.37 14.1768 136.3 17.9052 136.3V136.277Z" fill="white"/>
<path d="M175.695 3.48595C175.695 2.33165 175.349 1.61599 174.084 1.45439C170.931 1.01575 167.755 0.554034 164.602 0.0692282C163.152 -0.161632 162.484 0.300088 162.576 1.86994C162.668 3.53213 162.576 5.2174 162.576 6.90268C162.576 7.50292 162.576 8.12624 162.576 8.72647C162.622 14.6596 162.116 13.3437 167.524 12.9974C169.573 12.8589 171.598 12.4202 173.623 12.2355C174.981 12.1201 175.718 11.6122 175.672 10.1347C175.603 7.91846 175.626 5.70221 175.672 3.48595H175.695Z" fill="white"/>
<path d="M94.0613 53.5364L94.1303 96.384V113.121H94.1533V114.091C94.1533 131.036 94.1994 147.981 94.1303 164.903C94.1073 172.591 89.2282 178.547 81.8634 180.209C72.7496 182.264 63.6358 175.453 63.3366 166.127C63.1064 159.27 63.2445 152.391 63.2215 145.534C63.2215 142.487 63.1755 142.441 60.1835 142.441C44.3724 142.441 28.5382 142.487 12.7271 142.394C10.4256 142.394 9.64312 143.064 9.71216 145.372C9.98834 152.691 9.52805 160.009 10.0344 167.327C10.8399 178.778 15.0746 188.82 22.4163 197.478C34.6602 211.883 50.2872 219.732 69.2283 220.056C94.9358 220.494 117.513 202.903 124.003 177.947C125.338 172.822 125.845 167.581 125.868 162.318C125.891 145.926 125.868 129.535 125.868 113.144C125.868 109.381 125.868 105.641 125.868 101.878C125.868 81.1241 125.615 60.3698 125.96 39.6155C126.144 28.0725 131.852 19.3229 141.955 13.6438C145.706 11.543 149.826 10.8504 154.061 10.8966C155.833 10.8966 156.5 10.2963 156.477 8.5187C156.339 1.2697 157.352 2.37783 150.54 2.37783C138.733 2.37783 127.41 4.54791 117.03 10.2963C103.612 19.1152 94.6136 34.1672 94.1533 51.3663" fill="white"/>
<path d="M85.4305 46.1496H89.4581V66.5807H85.4305C82.2315 66.5807 79.6538 63.972 79.6538 60.7861V51.9673C79.6538 48.7583 82.2545 46.1727 85.4305 46.1727V46.1496Z" fill="#FDA310"/>
<path d="M85.4305 98.3701H89.4581V118.801H85.4305C82.2315 118.801 79.6538 116.193 79.6538 113.007V104.188C79.6538 100.979 82.2545 98.3932 85.4305 98.3932V98.3701Z" fill="#FDA310"/>
<path d="M85.4305 72.2598H89.4581V92.6909H85.4305C82.2315 92.6909 79.6538 90.0822 79.6538 86.8963V78.0775C79.6538 74.8685 82.2545 72.2829 85.4305 72.2829V72.2598Z" fill="#FDA310"/>
</g>
<defs>
<clipPath id="clip0_844_5149">
<rect width="880.223" height="220.056" fill="white"/>
</clipPath>
</defs>
</svg>
