<svg width="57" height="48" viewBox="0 0 57 48" fill="none" xmlns="http://www.w3.org/2000/svg">
<g filter="url(#filter0_d_404_20344)">
<circle cx="25.8161" cy="20.2423" r="18.8456" fill="#FDA310"/>
<path d="M4.61475 16.7195C5.22512 14.2938 5.8355 11.862 6.44588 9.43641C6.58152 8.89944 6.70482 8.3563 6.85279 7.81933C7.10557 6.89969 7.83926 6.44912 8.76408 6.68366C11.7173 7.41197 14.6644 8.15262 17.6115 8.89327C18.5733 9.13398 19.0049 9.85611 18.7952 10.819C18.6966 11.2819 18.5671 11.7448 18.45 12.2324C18.6966 12.2694 18.8199 12.1028 18.9617 12.0163C21.4464 10.4425 24.1715 9.62775 27.1001 9.76971C32.3468 10.0351 36.3482 12.4669 39.0486 16.991C39.2521 17.3367 39.4741 17.4478 39.8563 17.4478C41.8169 17.4293 43.7775 17.4354 45.7443 17.4416C46.8849 17.4416 47.4583 18.0156 47.4645 19.1513C47.4645 20.7128 47.4706 22.2744 47.4645 23.8359C47.4583 25.2123 46.5705 26.101 45.2017 26.1134C44.6592 26.1134 44.1228 26.1257 43.5802 26.1134C43.2473 26.101 43.1117 26.206 43.1117 26.5578C43.124 29.0945 43.1178 31.6312 43.1117 34.168C43.1117 34.4519 43.2288 34.6247 43.4508 34.7728C43.907 35.0691 44.3509 35.3715 44.7887 35.6863C45.2757 36.0381 45.399 36.6183 45.0908 37.0627C44.7825 37.5132 44.2091 37.6182 43.6974 37.2972C43.2658 37.0256 42.8466 36.7417 42.4335 36.4393C42.2115 36.2726 42.0327 36.285 41.8108 36.4393C41.4223 36.7232 41.0216 36.9824 40.6208 37.2478C40.0474 37.6182 39.4864 37.5441 39.1535 37.0627C38.8205 36.5812 38.9562 36.0381 39.5295 35.6307C39.9426 35.3345 40.368 35.0506 40.7996 34.7728C41.0339 34.6247 41.1264 34.4395 41.1264 34.1618C41.1202 31.6251 41.1264 29.0883 41.1202 26.5516C41.1202 26.3973 41.1819 26.1628 40.9353 26.1504C40.738 26.1381 40.7256 26.3418 40.701 26.4899C40.1091 29.792 38.5554 32.5509 36.0522 34.779C35.5528 35.2234 35.5467 35.2357 35.9474 35.8036C36.4283 36.4825 36.7489 37.1985 36.527 38.0564C36.2989 38.9513 35.7501 39.5624 34.8623 39.8278C33.956 40.0993 33.1483 39.871 32.4763 39.2106C32.0755 38.8217 31.8104 38.3218 31.5083 37.8589C31.3542 37.6182 31.2001 37.5749 30.9349 37.6552C28.0988 38.5501 25.2566 38.544 22.4143 37.6737C22.1122 37.5811 21.9334 37.612 21.767 37.8959C21.5573 38.2539 21.3169 38.5995 21.0703 38.9328C20.3057 39.9759 18.9 40.2351 17.8088 39.5315C16.7298 38.8341 16.3907 37.4268 17.0257 36.3035C17.0319 36.2912 17.0442 36.2788 17.0504 36.2665C17.2415 35.8961 17.7286 35.5752 17.6361 35.211C17.5436 34.8716 17.0751 34.6309 16.7791 34.3408C14.2451 31.8534 12.7963 28.8476 12.451 25.2987C12.3462 24.1939 12.377 23.1076 12.5373 22.0213C12.5866 21.6818 12.5127 21.4967 12.1551 21.4288C11.7605 21.3547 11.3721 21.2436 10.9836 21.1387C10.7062 21.0646 10.5521 21.1387 10.4719 21.4288C10.028 23.0397 9.57175 24.6444 9.134 26.2553C9.08468 26.4467 9.08468 26.6504 9.08468 26.854C9.08468 29.2365 9.09084 31.6189 9.07235 34.0013C9.07235 34.4087 9.19565 34.6679 9.54092 34.8716C9.94167 35.1061 10.3178 35.3777 10.6939 35.6431C11.2302 36.0196 11.3659 36.5689 11.0576 37.0441C10.737 37.5317 10.1636 37.6182 9.59641 37.254C9.18333 36.9886 8.77024 36.7109 8.36949 36.4269C8.15986 36.2788 7.9934 36.2788 7.78994 36.4269C7.37685 36.7294 6.9576 37.0133 6.52602 37.2849C5.98347 37.6243 5.41624 37.5132 5.10797 37.0256C4.81203 36.5627 4.94151 36.0196 5.45324 35.6554C5.854 35.3715 6.25474 35.0753 6.68016 34.8222C6.9946 34.6309 7.11174 34.3963 7.10557 34.026C7.08708 32.1559 7.14257 30.2795 7.08708 28.4156C7.04392 26.9281 7.23505 25.4962 7.69746 24.0889C8.02423 23.0891 8.25851 22.0645 8.56678 21.0584C8.67775 20.7005 8.6346 20.5153 8.22769 20.4536C7.87626 20.398 7.54332 20.2684 7.19189 20.2067C5.90948 19.9722 5.02166 19.2809 4.62091 18.0218C4.62091 17.5897 4.62091 17.1577 4.62091 16.7256L4.61475 16.7195ZM14.3623 24.0519C14.3623 30.8597 19.8495 36.3652 26.6376 36.3652C33.2285 36.3652 38.9377 31.1498 38.95 24.0828C38.9623 16.7688 33.0127 11.7139 26.6623 11.7324C19.8187 11.7509 14.3561 17.2132 14.3623 24.0519ZM6.51986 17.3243C6.5137 17.744 6.77264 18.065 7.26587 18.1946C9.06001 18.6513 10.8603 19.0957 12.6483 19.5586C12.9812 19.645 13.1045 19.5339 13.2155 19.2315C13.7272 17.7934 14.4424 16.4602 15.3981 15.269C15.7002 14.8925 15.8605 14.4852 15.9776 14.0284C16.0639 13.7013 15.9838 13.5655 15.6447 13.4853C13.2155 12.8928 10.7925 12.2817 8.36949 11.6645C8.02422 11.5781 7.88241 11.6522 7.7961 12.0102C7.40768 13.6334 6.9946 15.2505 6.59384 16.8676C6.55685 17.0157 6.53219 17.17 6.50753 17.3243H6.51986ZM43.1548 22.0336C42.4951 22.0336 41.8293 22.0336 41.1696 22.0336C40.9353 22.0336 40.7565 22.083 40.812 22.3669C40.9044 22.8237 40.8859 23.2866 40.8921 23.7495C40.8921 23.9902 40.9723 24.1321 41.2374 24.126C42.5321 24.126 43.8269 24.126 45.1216 24.126C45.3744 24.126 45.4854 24.0149 45.4792 23.7618C45.4792 23.3483 45.4607 22.9286 45.4792 22.5151C45.4977 22.1633 45.3744 22.0151 45.0045 22.0275C44.3879 22.0522 43.7714 22.0336 43.1548 22.0336ZM8.4743 9.38086C8.40031 9.7265 8.66543 9.7265 8.86272 9.77588C11.2672 10.3807 13.6779 10.9671 16.0824 11.5843C16.5078 11.6954 16.6003 11.5226 16.699 11.1708C16.8038 10.7819 16.6805 10.6647 16.3167 10.5782C13.9677 10.0042 11.6187 9.41172 9.26964 8.82538C8.62843 8.6649 8.54212 8.72662 8.4743 9.38086ZM42.8527 19.4228C42.082 19.4228 41.3114 19.4228 40.5469 19.4228C40.4359 19.4228 40.2632 19.3735 40.2386 19.5339C40.2201 19.645 40.2756 19.7747 40.3249 19.8858C40.4112 20.0833 40.6085 20.0462 40.7688 20.0462C42.1869 20.0462 43.5987 20.0462 45.0168 20.0462C45.2326 20.0462 45.4669 20.0647 45.4669 19.7376C45.4669 19.4105 45.2449 19.4228 45.0229 19.4228C44.3016 19.4228 43.5741 19.4228 42.8527 19.4228ZM34.6157 37.4577C34.5171 37.0874 34.2704 36.717 33.9498 36.4393C33.7587 36.2788 33.5183 36.5751 33.3025 36.68C33.1853 36.7417 33.1853 36.8528 33.2531 36.9577C33.4443 37.2417 33.6292 37.5256 33.8327 37.7971C33.956 37.9638 34.1533 37.9761 34.3383 37.9144C34.5171 37.8527 34.5972 37.7046 34.6095 37.4515L34.6157 37.4577ZM19.1158 37.9391C19.307 37.9453 19.4364 37.8465 19.5351 37.6984C19.6954 37.47 19.8433 37.2417 20.0036 37.0133C20.1085 36.8652 20.1516 36.717 19.942 36.6491C19.72 36.5812 19.5351 36.1986 19.27 36.4887C19.0357 36.7479 18.8569 37.0627 18.7027 37.3774C18.5733 37.6428 18.8137 37.9391 19.1097 37.9391H19.1158Z" fill="black"/>
<path d="M51.2686 13.8309C51.2933 14.6024 50.9788 15.2135 50.3623 15.664C50.1403 15.8245 50.0355 15.9912 50.0355 16.2689C50.0417 22.2373 50.0355 28.2057 50.0355 34.1741C50.0355 34.4642 50.1218 34.6679 50.3746 34.8222C50.8062 35.0938 51.2255 35.3838 51.6385 35.6863C52.1256 36.0381 52.2428 36.6244 51.9345 37.0688C51.6262 37.5194 51.0528 37.6243 50.5411 37.2972C50.1342 37.0441 49.7334 36.7787 49.3573 36.4887C49.0737 36.2665 48.8579 36.2911 48.5805 36.501C48.1982 36.7911 47.7975 37.0503 47.3906 37.3034C46.8727 37.6243 46.3178 37.5194 46.0033 37.0627C45.7012 36.6121 45.7875 36.0813 46.2746 35.7171C46.7432 35.3653 47.2364 35.0382 47.7297 34.7234C47.9639 34.5753 48.0626 34.3963 48.0564 34.1186C48.0564 28.181 48.0564 22.2435 48.0564 16.3059C48.0564 16.0591 48.0009 15.8739 47.779 15.7134C47.0761 15.2073 46.7309 14.5099 46.8048 13.6334C46.8295 13.3618 46.6445 13.2816 46.4966 13.1705C45.1032 12.1213 43.716 11.0597 42.3103 10.0289C41.4964 9.4364 41.0587 8.67724 41.1142 7.66501C41.1388 7.23914 40.9847 7.16508 40.5963 7.28235C39.3262 7.67736 38.0561 8.05386 36.7799 8.41801C35.257 8.85006 33.9253 7.94893 33.7465 6.38739C33.6232 5.33197 34.3507 4.33209 35.5098 3.97411C36.9278 3.54206 38.3459 3.12236 39.7701 2.70266C42.4212 1.91263 45.0662 1.1226 47.7173 0.338749C48.9134 -0.0130596 50.0417 0.425158 50.5719 1.43738C51.2378 2.715 50.6274 4.25802 49.2217 4.70859C47.5015 5.2579 45.7629 5.7455 44.0366 6.27012C42.9268 6.60959 43.1426 6.41208 43.0871 7.49837C43.0624 7.98596 43.2412 8.2884 43.6297 8.57231C45.0045 9.57219 46.3548 10.6029 47.705 11.6337C47.9393 11.8127 48.1304 11.788 48.3832 11.7139C49.8567 11.2819 51.2625 12.3188 51.2686 13.8248V13.8309ZM36.1263 6.56638C36.2188 6.5417 36.336 6.51701 36.4531 6.47997C40.3866 5.30728 44.3202 4.14075 48.2537 2.96189C48.525 2.88165 48.9689 2.85696 48.8209 2.41257C48.6791 1.9867 48.303 2.20889 48.0256 2.2953C44.3448 3.38776 40.6579 4.48639 36.9772 5.58502C36.6381 5.68378 36.2928 5.78253 35.9599 5.8998C35.7872 5.96152 35.6701 6.09113 35.7194 6.29481C35.7687 6.47997 35.892 6.57873 36.1202 6.57256L36.1263 6.56638Z" fill="black"/>
<path d="M26.7794 32.341C22.3526 32.341 18.8137 29.0945 18.3759 24.8481C17.9382 20.577 20.9901 16.4108 25.5771 15.7936C27.0938 15.59 28.5612 15.8121 29.9669 16.417C30.6204 16.7009 30.8732 17.2317 30.6451 17.781C30.417 18.3242 29.8559 18.4908 29.1901 18.2193C25.1147 16.5651 20.8606 19.0463 20.318 23.3915C19.9111 26.6442 22.3958 29.866 25.6573 30.3227C29.1716 30.8165 32.2666 28.5945 32.8955 25.0888C33.0496 24.237 33.0126 23.3668 32.803 22.5089C32.766 22.3607 32.7167 22.2126 32.6859 22.0583C32.5626 21.4411 32.8215 20.9535 33.3456 20.8054C33.8881 20.6511 34.3752 20.9597 34.5725 21.5769C36.1077 26.3109 32.8647 31.5324 27.957 32.2484C27.5131 32.3163 27.0692 32.341 26.7671 32.3348L26.7794 32.341Z" fill="black"/>
<path d="M32.1618 18.2441C32.7043 18.2441 33.1482 18.6824 33.1359 19.2132C33.1236 19.7316 32.7043 20.1637 32.1926 20.176C31.6624 20.1883 31.2123 19.7563 31.2 19.2193C31.1876 18.6824 31.6192 18.2441 32.1679 18.2441H32.1618Z" fill="black"/>
</g>
<defs>
<filter id="filter0_d_404_20344" x="0.614746" y="0.21875" width="55.49" height="47.7209" filterUnits="userSpaceOnUse" color-interpolation-filters="sRGB">
<feFlood flood-opacity="0" result="BackgroundImageFix"/>
<feColorMatrix in="SourceAlpha" type="matrix" values="0 0 0 0 0 0 0 0 0 0 0 0 0 0 0 0 0 0 127 0" result="hardAlpha"/>
<feOffset dy="4"/>
<feGaussianBlur stdDeviation="2"/>
<feComposite in2="hardAlpha" operator="out"/>
<feColorMatrix type="matrix" values="0 0 0 0 0 0 0 0 0 0 0 0 0 0 0 0 0 0 0.25 0"/>
<feBlend mode="normal" in2="BackgroundImageFix" result="effect1_dropShadow_404_20344"/>
<feBlend mode="normal" in="SourceGraphic" in2="effect1_dropShadow_404_20344" result="shape"/>
</filter>
</defs>
</svg>
