<svg width="46" height="44" viewBox="0 0 46 44" fill="none" xmlns="http://www.w3.org/2000/svg">
<circle cx="18.9094" cy="19.7235" r="18.8456" fill="#FDA310"/>
<path d="M20.2028 35.4809C19.3937 35.3309 18.5746 35.2109 17.8004 34.9209C13.6049 33.3459 11.1276 30.3359 10.3634 25.9209C10.1886 24.9209 10.2835 23.9009 10.2735 22.8909C10.2635 22.2409 10.2635 21.5859 10.2735 20.9359C10.2785 20.6709 10.2036 20.5359 9.94387 20.4259C8.81509 19.9609 8.21574 18.9209 8.32063 17.6559C8.40554 16.6109 9.25462 15.6809 10.3584 15.4109C10.5732 15.3559 10.788 15.3609 11.0077 15.3609C14.0045 15.3609 17.0013 15.3809 20.003 15.3509C21.2217 15.3409 22.4204 16.1859 22.6751 17.5209C22.9049 18.7409 22.2406 19.9459 21.0219 20.4559C20.8171 20.5409 20.7472 20.6509 20.7472 20.8659C20.7572 22.2259 20.7372 23.5859 20.7572 24.9409C20.7722 26.4059 21.7112 27.4309 23.1496 27.5959C24.3933 27.7359 25.6669 26.7609 25.8617 25.5159C25.8817 25.3859 25.9016 25.2559 25.9166 25.1259C25.9616 24.7359 25.9266 24.4559 25.5071 24.1909C24.2484 23.4009 24.3283 21.5709 25.6169 20.8359C25.8517 20.7009 25.9416 20.5609 25.9266 20.3009C25.9066 19.9409 25.9166 19.5859 25.9266 19.2259C25.9266 19.0559 25.8817 18.9509 25.7268 18.8609C24.2284 17.9909 24.2284 16.1709 25.7268 15.2909C25.8667 15.2109 25.9366 15.1159 25.9266 14.9559C25.9166 14.7809 25.9116 14.6059 25.9266 14.4359C25.9666 13.8809 25.8916 13.4809 25.3422 13.0859C24.2085 12.2659 24.4033 10.5509 25.6319 9.86095C25.8567 9.73595 25.9216 9.59595 25.9266 9.35095C25.9416 8.45095 25.8567 7.55095 26.0465 6.65595C26.6009 4.04095 29.0083 2.04595 31.6854 2.05595C33.4884 2.06095 35.2865 2.20095 37.0846 2.30095C37.7588 2.33595 38.4281 2.35595 39.1024 2.38595C39.3171 2.39595 39.5369 2.40595 39.7517 2.44595C40.0913 2.50595 40.3011 2.73595 40.3011 3.07595C40.3111 3.96595 40.3111 4.86095 40.3011 5.75095C40.3011 6.11595 40.0613 6.36095 39.6917 6.39595C38.6978 6.49095 37.7039 6.57095 36.71 6.66095C35.5113 6.76595 34.3126 6.85595 33.1138 6.97595C32.6843 7.01595 32.4995 7.23095 32.4945 7.66595C32.4845 8.66595 32.4945 9.66595 32.4895 10.6659C32.4895 10.8709 32.5794 10.9359 32.7692 10.9259C32.9091 10.9209 33.0539 10.9209 33.1938 10.9309C33.5484 10.9659 33.7881 11.2309 33.7931 11.5809C33.7981 11.9459 33.5584 12.2259 33.1938 12.2709C33.1638 12.2709 33.1288 12.2709 33.0939 12.2709C32.691 12.2876 32.4895 12.4926 32.4895 12.8859C32.4895 13.9409 32.4995 14.9959 32.4845 16.0509C32.4845 16.3209 32.5694 16.4309 32.8391 16.4009C32.959 16.3859 33.0789 16.3959 33.1988 16.4059C33.5484 16.4409 33.7881 16.7109 33.7931 17.0659C33.7931 17.4159 33.5634 17.6959 33.2187 17.7459C33.1988 17.7459 33.1738 17.7459 33.1538 17.7459C32.7143 17.7793 32.4945 18.0209 32.4945 18.4709C32.4945 19.4809 32.5045 20.4959 32.4895 21.5059C32.4895 21.7859 32.5545 21.9159 32.8541 21.8809C32.969 21.8659 33.0939 21.8759 33.2137 21.8859C33.5634 21.9259 33.7981 22.2009 33.7981 22.5509C33.7981 22.9009 33.5584 23.1759 33.2137 23.2209C33.2038 23.2209 33.1938 23.2209 33.1838 23.2209C32.974 23.2509 32.6993 23.1259 32.5594 23.2909C32.4046 23.4709 32.4995 23.7509 32.5045 23.9859C32.5794 26.8109 31.7353 29.3259 29.9273 31.4909C28.0293 33.7559 25.602 35.0709 22.6651 35.4309C22.6102 35.4359 22.5602 35.4559 22.5103 35.4709H20.2278L20.2028 35.4809ZM15.5328 20.6259C14.5339 20.6259 13.535 20.6259 12.5361 20.6259C11.5372 20.6259 11.5721 20.6259 11.6171 21.6159C11.6271 21.8109 11.692 21.8909 11.8868 21.8859C12.2214 21.8759 12.561 21.8809 12.8957 21.8859C13.3152 21.8959 13.6199 22.1909 13.6099 22.5709C13.6049 22.9409 13.3102 23.2209 12.9057 23.2359C12.571 23.2459 12.2314 23.2459 11.8968 23.2359C11.712 23.2359 11.6221 23.2909 11.6171 23.4959C11.6071 24.4859 11.642 25.4709 11.8518 26.4459C12.8358 31.0559 17.1161 34.4459 21.9859 34.1059C25.0476 33.8909 27.4749 32.5209 29.288 30.0609C30.7214 28.1159 31.2109 25.8859 31.136 23.5059C31.131 23.2809 31.0361 23.2309 30.8363 23.2359C30.1321 23.2409 29.4228 23.2409 28.7186 23.2359C28.5438 23.2359 28.4439 23.2959 28.364 23.4559C28.1692 23.8459 27.8745 24.1459 27.4799 24.3359C27.3001 24.4209 27.2602 24.5459 27.2652 24.7259C27.2652 25.0959 27.2752 25.4609 27.2002 25.8309C26.7957 27.8259 24.9277 29.1859 22.8749 28.9709C20.932 28.7659 19.4087 27.0609 19.4037 25.0759C19.4037 24.5759 19.3937 24.0759 19.4037 23.5759C19.4087 23.3259 19.3387 23.2209 19.074 23.2359C18.7294 23.2559 18.3798 23.2509 18.0301 23.2359C17.6456 23.2209 17.3808 22.9309 17.3858 22.5559C17.3858 22.1959 17.6456 21.9209 18.0152 21.8909C18.175 21.8809 18.3398 21.8859 18.5046 21.8859C19.4136 21.8859 19.4037 21.8859 19.4087 20.9809C19.4087 20.7109 19.3287 20.6209 19.059 20.6259C17.8853 20.6359 16.7116 20.6309 15.5378 20.6309L15.5328 20.6259ZM29.7775 10.9209C30.1121 10.9209 30.4517 10.9059 30.7864 10.9209C31.0611 10.9359 31.141 10.8309 31.136 10.5659C31.121 9.58595 31.131 8.61095 31.136 7.63095C31.136 6.47095 31.9401 5.63595 33.0939 5.57095C33.6583 5.54095 34.2177 5.48095 34.782 5.44095C34.9668 5.42595 35.0518 5.34595 35.0518 5.15595C35.0468 4.73095 35.0418 4.30595 35.0518 3.88595C35.0617 3.66095 34.9668 3.57095 34.7521 3.56095C34.3275 3.54595 33.908 3.51595 33.4834 3.50095C32.7592 3.47595 32.04 3.37595 31.3108 3.45095C29.3829 3.65095 27.7746 5.10095 27.385 7.01095C27.2152 7.85095 27.2801 8.70095 27.2702 9.54595C27.2702 9.71095 27.38 9.76595 27.4999 9.82595C27.8795 10.0209 28.1742 10.3059 28.359 10.6859C28.4489 10.8709 28.5738 10.9309 28.7735 10.9259C29.1082 10.9159 29.4478 10.9259 29.7824 10.9259L29.7775 10.9209ZM15.5278 16.7109C14.0395 16.7109 12.5561 16.7059 11.0677 16.7109C10.0937 16.7159 9.47938 17.5009 9.74409 18.3809C9.91391 18.9509 10.4234 19.2709 11.1825 19.2709C14.0694 19.2709 16.9563 19.2709 19.8432 19.2709C20.028 19.2709 20.2128 19.2509 20.3926 19.2109C21.0369 19.0659 21.4614 18.3859 21.3116 17.7459C21.1618 17.0909 20.6873 16.7209 19.9581 16.7159C18.4846 16.7109 17.0062 16.7159 15.5328 16.7159L15.5278 16.7109ZM31.131 14.3609C31.131 13.7759 31.126 13.1859 31.131 12.6009C31.131 12.3709 31.081 12.2659 30.8213 12.2709C30.1171 12.2859 29.4079 12.2809 28.7036 12.2709C28.5438 12.2709 28.4439 12.3159 28.369 12.4659C28.1742 12.8709 27.8695 13.1759 27.4649 13.3759C27.3001 13.4559 27.2552 13.5659 27.2552 13.7359C27.2652 14.1359 27.2652 14.5409 27.2552 14.9409C27.2552 15.1159 27.3201 15.2209 27.4749 15.2959C27.8645 15.4909 28.1642 15.7859 28.359 16.1809C28.4439 16.3559 28.5688 16.4009 28.7486 16.4009C29.4328 16.3959 30.1171 16.3859 30.8013 16.4009C31.0711 16.4059 31.131 16.2959 31.126 16.0509C31.111 15.4859 31.126 14.9209 31.126 14.3559L31.131 14.3609ZM31.131 19.8209C31.131 19.2359 31.126 18.6459 31.131 18.0609C31.131 17.8409 31.0661 17.7509 30.8313 17.7509C30.1271 17.7609 29.4178 17.7609 28.7136 17.7509C28.5388 17.7509 28.4389 17.8109 28.359 17.9709C28.1642 18.3609 27.8645 18.6609 27.4749 18.8559C27.3151 18.9359 27.2552 19.0359 27.2552 19.2109C27.2652 19.6109 27.2652 20.0159 27.2552 20.4159C27.2502 20.6059 27.3301 20.7109 27.4949 20.7959C27.8745 20.9859 28.1642 21.2809 28.354 21.6609C28.4389 21.8309 28.5538 21.8909 28.7386 21.8909C29.4328 21.8859 30.1271 21.8809 30.8263 21.8909C31.0511 21.8909 31.131 21.8159 31.131 21.5859C31.121 21.0009 31.131 20.4109 31.131 19.8259V19.8209ZM36.3953 4.47095C36.3953 4.66595 36.3953 4.86095 36.3953 5.05595C36.3903 5.21595 36.4353 5.29095 36.6201 5.27595C37.3093 5.21595 38.0036 5.16595 38.6978 5.11595C38.8876 5.10095 38.9625 5.00595 38.9575 4.82095C38.9525 4.58095 38.9426 4.34095 38.9575 4.10595C38.9725 3.87095 38.8826 3.76595 38.6529 3.75595C38.1634 3.73095 37.6789 3.70595 37.1894 3.67095C36.3953 3.60595 36.3953 3.60095 36.3953 4.41095C36.3953 4.43095 36.3953 4.45595 36.3953 4.47595V4.47095ZM26.5859 12.1859C26.9305 12.1859 27.2002 11.9359 27.2052 11.6059C27.2102 11.2809 26.9056 10.9709 26.5809 10.9759C26.2712 10.9809 25.9816 11.2759 25.9766 11.5909C25.9766 11.9209 26.2413 12.1809 26.5809 12.1859H26.5859ZM26.5859 21.9459C26.2762 21.9509 25.9816 22.2509 25.9816 22.5609C25.9816 22.8859 26.2962 23.1909 26.6209 23.1709C26.9405 23.1559 27.2202 22.8509 27.2102 22.5409C27.2002 22.2259 26.8956 21.9359 26.5859 21.9409V21.9459ZM26.5809 17.6659C26.9255 17.6709 27.1952 17.4259 27.2052 17.0959C27.2152 16.7909 26.9255 16.4759 26.6209 16.4609C26.3012 16.4459 25.9865 16.7509 25.9766 17.0709C25.9716 17.3959 26.2363 17.6609 26.5759 17.6709L26.5809 17.6659Z" fill="black"/>
<path d="M17.5825 27.3395C17.5825 27.8206 17.2413 28.1782 16.7883 28.1782C16.3353 28.1782 15.9941 27.8144 16 27.3334C16.0058 26.8647 16.3294 26.5255 16.7765 26.5194C17.2354 26.5132 17.5825 26.8647 17.5825 27.3457V27.3395Z" fill="black"/>
</svg>
