<svg width="23" height="23" viewBox="0 0 23 23" fill="none" xmlns="http://www.w3.org/2000/svg">
<g clip-path="url(#clip0_1385_12994)">
<path d="M6.43561 -0.000329571H7.01874C7.5237 0.225637 7.74977 0.614215 7.70963 1.16329C7.70118 1.28155 7.70963 1.40193 7.70963 1.5223C7.70963 1.75601 7.82442 1.87357 8.05401 1.87498C9.92385 1.87498 11.7937 1.87498 13.6635 1.87498C14.1199 1.87498 14.5762 1.86653 15.0326 1.8792C15.2523 1.88554 15.3305 1.80318 15.3115 1.58988C15.2988 1.44839 15.3178 1.30478 15.3073 1.16329C15.2692 0.614215 15.4911 0.223525 15.9982 -0.000329571H16.5813C17.0736 0.204518 17.3166 0.565642 17.2722 1.10627C17.2637 1.2182 17.2722 1.33013 17.2722 1.44205C17.2722 1.87287 17.2722 1.87287 17.7159 1.87498C18.0138 1.87498 18.3117 1.88132 18.6117 1.90666C19.9111 2.0207 20.9844 2.574 21.8464 3.54544C22.495 4.27614 22.8563 5.14199 23.0021 6.10287V18.8013C22.9915 18.852 22.9789 18.9027 22.9704 18.9534C22.5584 21.4264 20.3886 23.0145 18.168 22.9997C13.7163 22.9701 9.26676 22.9912 4.81508 22.9912C4.58267 22.9912 4.35449 22.9828 4.12208 22.9511C1.78955 22.6322 0 20.5943 0 18.2438C0 14.3686 0 10.4955 0 6.62239C0 6.41331 0.0126768 6.20636 0.0401433 5.99728C0.312695 3.98893 1.9628 2.28679 3.96151 1.95945C4.43478 1.88132 4.91227 1.86864 5.39188 1.87287C5.74472 1.87709 5.74472 1.87287 5.74683 1.53075C5.74683 1.38926 5.75528 1.24565 5.74683 1.10416C5.70669 0.563531 5.94332 0.200295 6.43983 -0.00244141L6.43561 -0.000329571ZM11.5085 9.61063C8.44066 9.61063 5.37498 9.61063 2.30718 9.61063C2.07759 9.61063 1.96209 9.72749 1.96068 9.9612C1.96068 12.7045 1.95857 15.4499 1.96068 18.1931C1.96068 19.7517 3.23048 21.0251 4.7855 21.0251C9.26676 21.0272 13.7459 21.0251 18.2272 21.0272C18.43 21.0272 18.6307 21.0019 18.8272 20.9575C20.1393 20.6598 21.052 19.5194 21.052 18.1699C21.052 15.4414 21.052 12.7129 21.052 9.98232C21.052 9.73453 20.9295 9.60993 20.6844 9.60852C17.625 9.60852 14.5657 9.60852 11.5063 9.60852L11.5085 9.61063ZM11.5063 7.61706C14.5424 7.61706 17.5807 7.61706 20.6168 7.61706C20.6907 7.61706 20.7668 7.61284 20.8407 7.61706C20.9928 7.6234 21.0583 7.55793 21.0562 7.40377C21.0499 7.16513 21.0562 6.92438 21.0562 6.68574C21.0499 5.14621 19.8054 3.87489 18.2673 3.87066C13.7649 3.86222 9.26043 3.86433 4.75804 3.87066C3.53261 3.87066 2.46564 4.67316 2.09802 5.84312C2.00505 6.13666 1.95012 6.43866 1.96491 6.74698C1.9797 7.01941 1.8487 7.36364 2.02407 7.54948C2.20366 7.73744 2.55016 7.61495 2.82271 7.61495C5.71725 7.62128 8.61179 7.61917 11.5063 7.61917V7.61706Z" fill="#555555"/>
<path d="M6.72233 15.8112C5.89622 15.8112 5.2497 15.1692 5.25393 14.3498C5.25815 13.543 5.90256 12.9053 6.71599 12.9053C7.53787 12.9053 8.19918 13.5599 8.19073 14.3646C8.18228 15.1692 7.53153 15.809 6.72233 15.809V15.8112Z" fill="#555555"/>
<path d="M16.3011 15.8112C15.4792 15.8112 14.8179 15.1586 14.8243 14.3519C14.8306 13.5473 15.4813 12.9053 16.2906 12.9053C17.1167 12.9053 17.7632 13.5452 17.7611 14.3646C17.759 15.1713 17.1145 15.8112 16.3011 15.8112Z" fill="#555555"/>
<path d="M12.9619 14.367C12.9619 15.1927 12.326 15.8136 11.4872 15.8115C10.6759 15.8094 10.0526 15.1737 10.0547 14.3501C10.0547 13.5244 10.6885 12.9035 11.5273 12.9077C12.3407 12.9098 12.9619 13.5434 12.9598 14.3691L12.9619 14.367Z" fill="#555555"/>
</g>
<defs>
<clipPath id="clip0_1385_12994">
<rect width="23" height="23" fill="white"/>
</clipPath>
</defs>
</svg>
