<svg width="45" height="40" viewBox="0 0 45 40" fill="none" xmlns="http://www.w3.org/2000/svg">
<g clip-path="url(#clip0_407_20524)">
<path d="M13.125 31.6667C15.1961 31.6667 16.875 30.1743 16.875 28.3333C16.875 26.4924 15.1961 25 13.125 25C11.0539 25 9.375 26.4924 9.375 28.3333C9.375 30.1743 11.0539 31.6667 13.125 31.6667Z" stroke="black" stroke-width="2" stroke-linecap="round" stroke-linejoin="round"/>
<path d="M31.875 31.6667C33.9461 31.6667 35.625 30.1743 35.625 28.3333C35.625 26.4924 33.9461 25 31.875 25C29.8039 25 28.125 26.4924 28.125 28.3333C28.125 30.1743 29.8039 31.6667 31.875 31.6667Z" stroke="black" stroke-width="2" stroke-linecap="round" stroke-linejoin="round"/>
<path d="M9.375 28.3335H7.625C6.52043 28.3335 5.625 27.4381 5.625 26.3335V21.6668M3.75 8.3335H22.375C23.4796 8.3335 24.375 9.22893 24.375 10.3335V28.3335M16.875 28.3335H28.125M35.625 28.3335H37.375C38.4796 28.3335 39.375 27.4381 39.375 26.3335V18.3335M39.375 18.3335H24.375M39.375 18.3335L34.3447 10.8812C33.9729 10.3303 33.3517 10.0002 32.687 10.0002H24.375" stroke="black" stroke-width="2" stroke-linecap="round" stroke-linejoin="round"/>
<path d="M9 28H7.25C6.14543 28 5.25 27.1046 5.25 26V21.3333M3.375 8H22C23.1046 8 24 8.89543 24 10V28M16.875 28H27.75M36 28H37C38.1046 28 39 27.1046 39 26V18M39 18H24M39 18L33.9697 10.5477C33.5979 9.99684 32.9767 9.66667 32.312 9.66667H24" stroke="black" stroke-width="2" stroke-linecap="round" stroke-linejoin="round"/>
<path d="M5.625 11.8181H13.125" stroke="black" stroke-width="2" stroke-linecap="round" stroke-linejoin="round"/>
<path d="M2.04541 15.4546H9.54541" stroke="black" stroke-width="2" stroke-linecap="round" stroke-linejoin="round"/>
<path d="M5.625 19.0908H13.125" stroke="black" stroke-width="2" stroke-linecap="round" stroke-linejoin="round"/>
</g>
<defs>
<clipPath id="clip0_407_20524">
<rect width="45" height="40" fill="white"/>
</clipPath>
</defs>
</svg>
