<svg width="17" height="18" viewBox="0 0 17 18" fill="none" xmlns="http://www.w3.org/2000/svg">
<g clip-path="url(#clip0_414_20557)">
<path d="M2.52948 0.0459329C3.20799 0.0459329 3.88651 0.0615842 4.56412 0.0385675C4.907 0.0265988 5.11327 0.157334 5.30415 0.442741C6.57524 2.34484 7.86261 4.2359 9.14546 6.13063C9.44763 6.57716 9.45034 6.57624 9.78869 6.17575C11.4198 4.24603 13.051 2.31722 14.6812 0.38658C14.921 0.103014 15.9252 -0.110581 16.2744 0.0625049C16.5024 0.175747 16.3151 0.296355 16.2473 0.379215C15.8347 0.887424 15.4122 1.38735 14.9897 1.88727C13.4563 3.70007 11.9274 5.51655 10.3822 7.31922C10.1741 7.56227 10.2166 7.71326 10.3767 7.94896C12.4919 11.0654 14.598 14.1883 16.7068 17.3103C16.7494 17.3738 16.7973 17.4337 16.8326 17.5009C16.8941 17.6178 17.0506 17.7182 16.9837 17.8609C16.914 18.0109 16.7412 17.9437 16.6146 17.9447C15.5896 17.9502 14.5555 17.86 13.5422 17.9704C12.3942 18.0966 11.7121 17.6896 11.1059 16.6852C10.0112 14.8715 8.74921 13.1627 7.57221 11.3996C7.36232 11.0848 7.22752 11.0516 6.97511 11.3527C5.25349 13.4058 3.52011 15.4469 1.79215 17.4945C1.4737 17.8719 0.548208 18.126 0.114862 17.9309C-0.125785 17.8222 0.0714373 17.7071 0.140194 17.6243C0.821424 16.8049 1.50808 15.9901 2.19565 15.1753C3.54092 13.5816 4.87805 11.9815 6.24051 10.4035C6.53905 10.0582 6.51372 9.81791 6.26855 9.45885C4.23029 6.47589 2.20922 3.47911 0.185428 0.485092C0.111244 0.375532 -0.0371253 0.266893 0.0325357 0.126952C0.102197 -0.0166726 0.275897 0.0496155 0.404363 0.0486949C1.11273 0.0431709 1.8211 0.0459329 2.52948 0.0459329ZM2.23817 1.28607C2.33497 1.44627 2.37749 1.52453 2.42725 1.59818C5.53575 6.19416 8.68045 10.7653 11.7247 15.4045C12.3933 16.4237 13.0845 16.9411 14.2651 16.7119C14.408 16.6843 14.608 16.7855 14.6858 16.6447C14.7663 16.4983 14.5881 16.3749 14.5075 16.2552C12.871 13.8293 11.2326 11.4042 9.59147 8.98103C7.92504 6.52008 6.25589 4.06005 4.58945 1.5991C4.47546 1.43062 4.36328 1.27963 4.12987 1.28239C3.52916 1.28976 2.92844 1.28515 2.23907 1.28515L2.23817 1.28607Z" fill="#666666"/>
</g>
<defs>
<clipPath id="clip0_414_20557">
<rect width="17" height="18" fill="white"/>
</clipPath>
</defs>
</svg>
