<svg width="213" height="54" viewBox="0 0 213 54" fill="none" xmlns="http://www.w3.org/2000/svg">
<g clip-path="url(#clip0_404_20329)">
<path d="M59.4451 38.1609L59.4119 22.3032L51.5713 35.5171H50.1452L42.3046 22.3923V38.1554H39.3304V16.3921H41.8718L50.9221 31.6932L59.8502 16.3921H62.3916L62.4249 38.1609H59.4507H59.4451Z" fill="black"/>
<path d="M83.8159 21.4961V37.9772H80.997V35.4892C79.7874 37.1979 77.7398 38.1609 75.4149 38.1609C71.17 38.1609 68.3456 35.8287 68.3456 30.9807V21.4961H71.3198V30.6356C71.3198 33.8694 72.9345 35.4892 75.7533 35.4892C78.8552 35.4892 80.8361 33.5633 80.8361 30.0177V21.4961H83.8103H83.8159Z" fill="black"/>
<path d="M87.4115 36.2351L88.6545 33.8695C90.0472 34.8658 92.2779 35.5783 94.4197 35.5783C97.1775 35.5783 98.3262 34.7378 98.3262 33.3408C98.3262 29.6393 87.9386 32.8454 87.9386 26.283C87.9386 23.3274 90.5744 21.3403 94.7915 21.3403C96.9278 21.3403 99.3471 21.9025 100.773 22.832L99.5025 25.1976C98.0154 24.2347 96.3729 23.8896 94.7582 23.8896C92.1558 23.8896 90.8851 24.8525 90.8851 26.1605C90.8851 30.0456 101.3 26.873 101.3 33.2795C101.3 36.2629 98.5703 38.161 94.2033 38.161C91.4733 38.161 88.7765 37.3205 87.417 36.2351H87.4115Z" fill="black"/>
<path d="M104.608 16.5813C104.608 15.4904 105.479 14.6221 106.622 14.6221C107.765 14.6221 108.636 15.4625 108.636 16.5201C108.636 17.6389 107.798 18.5127 106.622 18.5127C105.445 18.5127 104.608 17.6723 104.608 16.5869V16.5813ZM105.135 21.6798H108.109V38.1609H105.135V21.6798Z" fill="black"/>
<path d="M112.154 29.7339C112.154 24.8191 115.783 21.3403 120.832 21.3403C123.779 21.3403 126.226 22.5537 127.53 24.8525L125.266 26.3164C124.212 24.7022 122.602 23.9508 120.805 23.9508C117.581 23.9508 115.161 26.2218 115.161 29.7339C115.161 33.2461 117.581 35.5505 120.805 35.5505C122.602 35.5505 124.217 34.8046 125.266 33.1849L127.53 34.6154C126.226 36.9142 123.779 38.161 120.832 38.161C115.777 38.161 112.154 34.6488 112.154 29.7339Z" fill="black"/>
<path d="M155.297 38.1609L150.613 31.4761C150.18 31.5039 149.714 31.5373 149.248 31.5373H143.882V38.1609H140.781V16.3921H149.243C154.886 16.3921 158.293 19.253 158.293 23.9786C158.293 27.335 156.556 29.7618 153.521 30.8527L158.665 38.1609H155.285H155.297ZM155.202 23.9786C155.202 20.8672 153.127 19.0972 149.159 19.0972H143.888V28.8935H149.159C153.127 28.8935 155.202 27.0901 155.202 23.9786Z" fill="black"/>
<path d="M177.681 30.7302H164.352C164.724 33.6246 167.049 35.5504 170.306 35.5504C172.226 35.5504 173.841 34.8992 175.051 33.5578L176.693 35.4836C175.206 37.2258 172.942 38.1553 170.212 38.1553C164.913 38.1553 161.378 34.6432 161.378 29.7283C161.378 24.8135 164.88 21.3347 169.624 21.3347C174.368 21.3347 177.747 24.7523 177.747 29.823C177.747 30.0734 177.714 30.4464 177.686 30.7247L177.681 30.7302ZM164.352 28.5817H174.89C174.579 25.8154 172.504 23.8561 169.618 23.8561C166.733 23.8561 164.658 25.782 164.347 28.5817H164.352Z" fill="black"/>
<path d="M197.462 28.6763V38.1609H194.488V29.0214C194.488 25.7875 192.879 24.2012 190.055 24.2012C186.892 24.2012 184.844 26.0992 184.844 29.6726V38.1609H181.87V21.6798H184.722V24.1678C185.932 22.4869 188.04 21.5239 190.643 21.5239C194.644 21.5239 197.462 23.8227 197.462 28.6763Z" fill="black"/>
<path d="M212.223 37.0088C211.324 37.7881 209.959 38.161 208.627 38.161C205.309 38.161 203.416 36.3242 203.416 33.0012V23.9508H200.625V21.4962H203.416V17.8894H206.391V21.4962H211.102V23.9508H206.391V32.8732C206.391 34.6432 207.323 35.6396 208.965 35.6396C209.837 35.6396 210.669 35.3613 211.29 34.8603L212.223 37.0032V37.0088Z" fill="black"/>
<path d="M106.622 20.049C108.13 20.049 109.352 18.823 109.352 17.3105C109.352 15.7981 108.13 14.572 106.622 14.572C105.114 14.572 103.892 15.7981 103.892 17.3105C103.892 18.823 105.114 20.049 106.622 20.049Z" fill="#FDA310"/>
<path d="M4.31701 32.8563C5.76527 32.8563 7.21352 32.8563 8.66178 32.8563C10.9923 32.8563 13.3228 32.8619 15.6478 32.8563C16.7521 32.8563 17.4068 32.155 17.3624 31.0807C17.3347 30.3238 16.8741 29.7505 16.1361 29.5835C15.8698 29.5222 15.5923 29.5111 15.3204 29.5111C10.898 29.5111 6.48107 29.5111 2.05861 29.5111C1.8755 29.5111 1.69239 29.5055 1.50927 29.5278C0.510473 29.6391 -0.0388665 30.2737 -2.43147e-05 31.2756C0.033269 32.2218 0.638097 32.8341 1.62025 32.8563C2.51917 32.8786 3.41809 32.8619 4.31701 32.8619V32.8563Z" fill="black"/>
<path d="M42.3602 0.840433C42.3602 0.56213 42.277 0.389583 41.9718 0.35062C41.2116 0.244865 40.4458 0.133544 39.6856 0.0166568C39.336 -0.0390038 39.1751 0.0723173 39.1973 0.450809C39.2195 0.851565 39.1973 1.25789 39.1973 1.66421C39.1973 1.80893 39.1973 1.95921 39.1973 2.10393C39.2084 3.5344 39.0864 3.21714 40.3903 3.13365C40.8842 3.10025 41.3725 2.9945 41.8608 2.94997C42.1882 2.92214 42.3657 2.79968 42.3546 2.44346C42.338 1.90912 42.3435 1.37477 42.3546 0.840433H42.3602Z" fill="black"/>
<path d="M22.6784 12.9076L22.695 23.2382V27.2736H22.7006V27.5074C22.7006 31.5929 22.7117 35.6784 22.695 39.7583C22.6895 41.6118 21.5131 43.0478 19.7374 43.4486C17.5401 43.944 15.3427 42.302 15.2706 40.0533C15.2151 38.4002 15.2484 36.7415 15.2429 35.0884C15.2429 34.3536 15.2318 34.3425 14.5104 34.3425C10.6983 34.3425 6.88069 34.3536 3.0686 34.3314C2.51372 34.3314 2.32505 34.4928 2.3417 35.0494C2.40829 36.8138 2.29731 38.5783 2.41938 40.3427C2.6136 43.1035 3.63459 45.5247 5.40468 47.612C8.35669 51.0852 12.1244 52.9777 16.6911 53.0556C22.8892 53.1613 28.3327 48.92 29.8975 42.9031C30.2193 41.6674 30.3414 40.4039 30.3469 39.1349C30.3525 35.183 30.3469 31.2311 30.3469 27.2792C30.3469 26.3719 30.3469 25.4702 30.3469 24.5629C30.3469 19.5591 30.2859 14.5552 30.3691 9.55129C30.4135 6.76826 31.7896 4.65873 34.2256 3.28948C35.1301 2.78297 36.1233 2.61598 37.1443 2.62712C37.5716 2.62712 37.7325 2.4824 37.7269 2.05381C37.6936 0.30607 37.9378 0.573241 36.2953 0.573241C33.4487 0.573241 30.7187 1.09645 28.2161 2.4824C24.9811 4.60863 22.8115 8.2377 22.7006 12.3844" fill="black"/>
<path d="M20.5975 11.1265H21.5685V16.0524H20.5975C19.8262 16.0524 19.2047 15.4235 19.2047 14.6553V12.5291C19.2047 11.7554 19.8317 11.132 20.5975 11.132V11.1265Z" fill="#FDA310"/>
<path d="M20.5975 23.7168H21.5685V28.6428H20.5975C19.8262 28.6428 19.2047 28.0138 19.2047 27.2457V25.1194C19.2047 24.3458 19.8317 23.7224 20.5975 23.7224V23.7168Z" fill="#FDA310"/>
<path d="M20.5975 17.4216H21.5685V22.3476H20.5975C19.8262 22.3476 19.2047 21.7186 19.2047 20.9505V18.8243C19.2047 18.0506 19.8317 17.4272 20.5975 17.4272V17.4216Z" fill="#FDA310"/>
</g>
<defs>
<clipPath id="clip0_404_20329">
<rect width="212.223" height="53.0556" fill="white"/>
</clipPath>
</defs>
</svg>
